<?xml version="1.0" encoding="UTF-8" standalone="no"?>
<svg width="19px" height="14px" viewBox="0 0 19 14" version="1.1" xmlns="http://www.w3.org/2000/svg" xmlns:xlink="http://www.w3.org/1999/xlink" xmlns:sketch="http://www.bohemiancoding.com/sketch/ns">
    <!-- Generator: Sketch 3.2.2 (9983) - http://www.bohemiancoding.com/sketch -->
    <title>Imported Layers 4</title>
    <desc>Created with Sketch.</desc>
    <defs></defs>
    <g id="Page-1" stroke="none" stroke-width="1" fill="none" fill-rule="evenodd" sketch:type="MSPage">
        <g id="Position" sketch:type="MSArtboardGroup" transform="translate(-340.000000, -97.000000)" fill="#3498DB">
            <g id="Back-to-openings-+-Imported-Layers-4" sketch:type="MSLayerGroup" transform="translate(340.000000, 91.000000)">
                <path d="M17.9318696,13.6187247 L18.515913,13.0001094 L12.1492609,6.25658974 C11.8262609,5.91447009 11.3041739,5.91447009 10.9811739,6.25658974 C10.6581739,6.5987094 10.6581739,7.15170075 10.9811739,7.49382041 L15.3536522,12.125123 L0.826086957,12.125123 C0.370086957,12.125123 0,12.5171169 0,13.0001094 C0,13.4831018 0.370086957,13.8750957 0.826086957,13.8750957 L15.3536522,13.8750957 L10.9811739,18.5063983 C10.6581739,18.848518 10.6581739,19.4015094 10.9811739,19.743629 C11.1422609,19.9142513 11.3537391,20 11.5652174,20 C11.7766957,20 11.9881739,19.9142513 12.1492609,19.743629 L17.9318696,13.6187247" id="Imported-Layers-4" sketch:type="MSShapeGroup" transform="translate(9.500000, 13.000000) scale(-1, 1) translate(-9.500000, -13.000000) "></path>
            </g>
        </g>
    </g>
</svg>