<?xml version="1.0" encoding="UTF-8" standalone="no"?>
<svg width="23px" height="16px" viewBox="0 0 23 16" version="1.1" xmlns="http://www.w3.org/2000/svg" xmlns:xlink="http://www.w3.org/1999/xlink" xmlns:sketch="http://www.bohemiancoding.com/sketch/ns">
    <!-- Generator: Sketch 3.2.2 (9983) - http://www.bohemiancoding.com/sketch -->
    <title>Imported Layers</title>
    <desc>Created with Sketch.</desc>
    <defs></defs>
    <g id="Page-1" stroke="none" stroke-width="1" fill="none" fill-rule="evenodd" sketch:type="MSPage">
        <g id="states" sketch:type="MSArtboardGroup" transform="translate(-767.000000, -2655.000000)" fill="#3498DB">
            <g id="Rectangle-45-+-WHO-WE-ARE-+-chevron-right-2" sketch:type="MSLayerGroup" transform="translate(613.000000, 2634.000000)">
                <g id="Imported-Layers" sketch:type="MSShapeGroup">
                    <path d="M175.707,29.70725 L176.414,29.00025 L168.707,21.29325 C168.316,20.90225 167.684,20.90225 167.293,21.29325 C166.902,21.68425 166.902,22.31625 167.293,22.70725 L172.586,28.00025 L155,28.00025 C154.448,28.00025 154,28.44825 154,29.00025 C154,29.55225 154.448,30.00025 155,30.00025 L172.586,30.00025 L167.293,35.29325 C166.902,35.68425 166.902,36.31625 167.293,36.70725 C167.488,36.90225 167.744,37.00025 168,37.00025 C168.256,37.00025 168.512,36.90225 168.707,36.70725 L175.707,29.70725"></path>
                </g>
            </g>
        </g>
    </g>
</svg>