<?xml version="1.0" encoding="UTF-8" standalone="no"?>
<svg width="28px" height="34px" viewBox="0 0 28 34" version="1.1" xmlns="http://www.w3.org/2000/svg" xmlns:xlink="http://www.w3.org/1999/xlink" xmlns:sketch="http://www.bohemiancoding.com/sketch/ns">
    <!-- Generator: Sketch 3.2.2 (9983) - http://www.bohemiancoding.com/sketch -->
    <title>avatar-xy</title>
    <desc>Created with Sketch.</desc>
    <defs></defs>
    <g id="Page-1" stroke="none" stroke-width="1" fill="none" fill-rule="evenodd" sketch:type="MSPage">
        <g id="who-we-are" sketch:type="MSArtboardGroup" transform="translate(-479.000000, -3947.000000)" fill="#BCBCBD">
            <g id="Group-5" sketch:type="MSLayerGroup" transform="translate(340.000000, 3682.000000)">
                <g id="Oval-42-+-avatar-xy" transform="translate(129.000000, 255.000000)" sketch:type="MSShapeGroup">
                    <path d="M19.6363636,30.1090909 C18.9818182,29.8909091 17.6727273,27.9272727 17.4545455,26.1818182 C17.0181818,26.1818182 16.1454545,25.7454545 15.9272727,24 C15.7090909,23.1272727 16.3636364,22.4727273 16.5818182,22.2545455 C14.8363636,16.1454545 15.7090909,10.9090909 24,10.9090909 C25.9636364,10.9090909 27.4909091,11.3454545 28.1454545,12.2181818 C34.0363636,12.8727273 32.2909091,19.8545455 31.4181818,22.2545455 C31.6363636,22.4727273 32.2909091,22.9090909 32.0727273,24 C31.8545455,25.7454545 30.9818182,26.1818182 30.5454545,26.1818182 C30.3272727,27.9272727 29.2363636,29.8909091 28.3636364,30.1090909 L28.3636364,33.6 C29.4545455,36 33.8181818,36.4363636 37.3090909,38.1818182 C33.8181818,41.4545455 29.0181818,43.6363636 23.7818182,43.6363636 C18.5454545,43.6363636 13.7454545,41.6727273 10.2545455,38.1818182 C13.7454545,36.4363636 18.3272727,36 19.2,33.6 C19.6363636,32.2909091 19.6363636,31.4181818 19.6363636,30.1090909 L19.6363636,30.1090909 Z" id="avatar-xy"></path>
                </g>
            </g>
        </g>
    </g>
</svg>