<?xml version="1.0" encoding="UTF-8" standalone="no"?>
<svg width="48px" height="48px" viewBox="0 0 48 48" version="1.1" xmlns="http://www.w3.org/2000/svg" xmlns:xlink="http://www.w3.org/1999/xlink" xmlns:sketch="http://www.bohemiancoding.com/sketch/ns">
    <!-- Generator: Sketch 3.2.2 (9983) - http://www.bohemiancoding.com/sketch -->
    <title>Oval 17</title>
    <desc>Created with Sketch.</desc>
    <defs></defs>
    <g id="Page-1" stroke="none" stroke-width="1" fill="none" fill-rule="evenodd" sketch:type="MSPage">
        <g id="what-we-do" sketch:type="MSArtboardGroup" transform="translate(-1063.000000, -4018.000000)" fill="#FFFFFF">
            <g id="section-single-door" sketch:type="MSLayerGroup" transform="translate(0.000000, 3728.000000)">
                <g id="nudges" transform="translate(840.000000, 60.000000)" sketch:type="MSShapeGroup">
                    <g id="Group" transform="translate(199.000000, 130.000000)">
                        <path d="M48,148 C61.254834,148 72,137.254834 72,124 C72,110.745166 61.254834,100 48,100 C34.745166,100 24,110.745166 24,124 C24,137.254834 34.745166,148 48,148 Z M54.4285714,113 L41.5714286,113 C40.1571429,113 39.0128571,114.1 39.0128571,115.444444 L39,135 L48,131.333333 L57,135 L57,115.444444 C57,114.1 55.8428571,113 54.4285714,113 Z" id="Oval-17"></path>
                    </g>
                </g>
            </g>
        </g>
    </g>
</svg>