<?xml version="1.0" encoding="UTF-8" standalone="no"?>
<svg width="280px" height="110px" viewBox="0 0 280 110" version="1.1" xmlns="http://www.w3.org/2000/svg" xmlns:xlink="http://www.w3.org/1999/xlink" xmlns:sketch="http://www.bohemiancoding.com/sketch/ns">
    <!-- Generator: Sketch 3.2.2 (9983) - http://www.bohemiancoding.com/sketch -->
    <title>Imported Layers</title>
    <desc>Created with Sketch.</desc>
    <defs></defs>
    <g id="Page-1" stroke="none" stroke-width="1" fill="none" fill-rule="evenodd" sketch:type="MSPage">
        <g id="Join-our-team" sketch:type="MSArtboardGroup" transform="translate(-131.000000, -1226.000000)" fill="#FFFFFF">
            <path d="M409.488465,1281.9192 L371.27834,1243.08337 L371.27834,1238.25841 L359.217427,1226 L309.077676,1276.95963 L309.077676,1266.83737 L295.068382,1252.59867 L276.577925,1271.39191 L266.59668,1271.39191 L259.171452,1278.93873 L239.694606,1278.93873 L222.520498,1296.39407 L213.999668,1287.73371 L219.215104,1282.43405 L219.215104,1267.18572 L209.750871,1267.18572 L203.36083,1273.68159 L198.674025,1273.68159 L191.400996,1281.07253 L186.033361,1281.07253 L131,1335.50032 L410.169295,1335.50032 L410.169295,1282.61118 L409.488465,1281.9192 L409.488465,1281.9192 Z M194.752863,1311.8585 L173.701743,1333.25434 L173.701743,1333.13862 L136.72083,1333.13862 L186.977925,1283.43541 L192.362988,1283.43541 L199.637178,1276.04211 L204.322822,1276.04211 L210.714025,1269.54743 L216.891452,1269.54743 L194.752863,1292.04854 L194.752863,1311.8585 L194.752863,1311.8585 Z M295.068382,1274.0016 L249.056598,1320.76684 L234.692946,1320.76684 L234.692946,1311.6117 L222.764481,1299.48672 L222.520498,1299.7347 L240.657759,1281.30044 L260.133444,1281.30044 L267.558672,1273.75362 L277.539917,1273.75362 L295.068382,1255.93812 L295.068382,1274.0016 L295.068382,1274.0016 Z M375.162324,1290.8736 L354.75834,1290.8736 L342.540581,1303.29143 L326.07751,1303.29143 L313.418257,1316.15798 L300.54639,1303.07533 L320.630871,1282.66196 L306.754025,1282.66196 L359.217427,1229.33945 L368.954689,1239.23616 L368.954689,1244.06112 L395.087635,1270.622 L375.162324,1290.8736 L375.162324,1290.8736 Z" id="Imported-Layers" sketch:type="MSShapeGroup"></path>
        </g>
    </g>
</svg>