<?xml version="1.0" encoding="UTF-8" standalone="no"?>
<svg width="61px" height="40px" viewBox="0 0 61 40" version="1.1" xmlns="http://www.w3.org/2000/svg" xmlns:xlink="http://www.w3.org/1999/xlink" xmlns:sketch="http://www.bohemiancoding.com/sketch/ns">
    <!-- Generator: Sketch 3.2.2 (9983) - http://www.bohemiancoding.com/sketch -->
    <title>content</title>
    <desc>Created with Sketch.</desc>
    <defs></defs>
    <g id="Page-1" stroke="none" stroke-width="1" fill="none" fill-rule="evenodd" sketch:type="MSPage">
        <path d="M28.8517727,33.696824 C26.6190489,32.2968281 24.2808708,31.2268312 21.8072383,30.3901669 C18.2190622,29.1768371 14.5217953,28.9643377 10.7763466,29.4226697 C8.69998627,29.6760023 6.64908042,30.1093344 4.58726549,30.461 C4.49635654,30.476 4.40362942,30.4843333 4.22544788,30.5068332 L4.22544788,29.9468349 C4.22544788,20.586862 4.22817515,11.2260558 4.21635698,1.86608296 C4.21544789,1.48191741 4.29908413,1.29441795 4.74635615,1.19525157 C8.22362339,0.424420473 11.7299815,-0.0855780486 15.3236122,0.0119216687 C18.7481522,0.1044214 21.9217836,1.04358534 24.9563243,2.41608136 C26.1963223,2.97691307 27.3699568,3.66441108 28.5563186,4.32190917 C28.723591,4.41524223 28.8890453,4.66190819 28.8890453,4.83774101 C28.9044998,14.38688 28.9026817,23.9368523 28.8999544,33.4859913 C28.8999544,33.5334911 28.8799544,33.5801577 28.8517727,33.696824 Z M31.2808597,33.9143234 L31.2808597,33.2093254 C31.2808597,23.8835191 31.2844961,14.5577128 31.2708597,5.23190653 C31.2699507,4.80440777 31.3990414,4.54940851 31.801768,4.31774252 C35.2344899,2.34358157 38.8763023,0.850252571 42.9099323,0.287754202 C45.5499281,-0.0805780631 48.190833,0.0802548039 50.8090107,0.488586953 C52.1926449,0.70358633 53.5544609,1.0344187 54.9317315,1.28691797 C55.3890035,1.37108439 55.5035488,1.56691716 55.5026397,1.98608261 C55.4880943,10.8818902 55.4917306,19.7776977 55.4917306,28.6726719 L55.4917306,30.7018327 C46.8826533,28.2010066 38.8172115,29.0410042 31.2808597,33.9143234 Z M57.8280906,3.99274346 C58.6571802,4.09607649 59.4089972,4.19024289 60.1889959,4.28690927 L60.1889959,36.1151503 C59.3326337,35.9443175 58.4862713,35.7676513 57.6353636,35.6076518 C53.7662788,34.8784872 49.8644668,34.4009886 45.9053821,34.5193216 C40.2999364,34.6868211 35.3317624,36.461816 30.928133,39.6143068 C30.7372242,39.7509731 30.55177,39.894306 30.409952,39.9993057 C29.1708631,39.2301413 28.0035922,38.423477 26.7535941,37.7451456 C22.5008736,35.436819 17.8917899,34.3734887 12.9427069,34.502655 C8.74362257,34.6126547 4.61817453,35.1734864 0.531817343,36.0309839 C0.369999416,36.0651505 0.206363311,36.0876504 0,36.1234836 L0,4.16857628 C0.60545359,4.08440986 1.20727082,4.00107677 1.86999705,3.90857704 L1.86999705,33.6526575 C2.67635941,33.4959912 3.41544916,33.346825 4.15726617,33.2109921 C7.549079,32.5893272 10.9681645,32.1668284 14.4299772,32.1559951 C19.7372416,32.1384952 24.5072341,33.7268239 28.9226816,36.3301497 C29.3799536,36.5993156 29.8199529,36.8934814 30.2308614,37.1526473 C31.5699502,36.4184828 32.8672209,35.6351517 34.2335823,34.970987 C37.9699401,33.1551589 41.9444793,32.1143286 46.2017453,32.1559951 C49.9117394,32.1918284 53.5590064,32.7084935 57.1608189,33.5118245 C57.3253641,33.5476578 57.4880911,33.5868243 57.6526363,33.6201576 C57.6862726,33.6268242 57.7244544,33.6134909 57.8280906,33.6018243 L57.8280906,3.99274346 Z" id="content" fill="#FFFFFF" sketch:type="MSShapeGroup"></path>
    </g>
</svg>