<?xml version="1.0" encoding="UTF-8" standalone="no"?>
<svg width="200px" height="86px" viewBox="0 0 200 86" version="1.1" xmlns="http://www.w3.org/2000/svg" xmlns:xlink="http://www.w3.org/1999/xlink" xmlns:sketch="http://www.bohemiancoding.com/sketch/ns">
    <!-- Generator: Sketch 3.2.2 (9983) - http://www.bohemiancoding.com/sketch -->
    <title>datu-logo</title>
    <desc>Created with Sketch.</desc>
    <defs></defs>
    <g id="Page-1" stroke="none" stroke-width="1" fill="none" fill-rule="evenodd" sketch:type="MSPage">
        <g id="what-we-do" sketch:type="MSArtboardGroup" transform="translate(-620.000000, -193.000000)">
            <g id="section-intro" sketch:type="MSLayerGroup">
                <g id="datu-logo" transform="translate(620.000000, 193.000000)" sketch:type="MSShapeGroup">
                    <g id="letters" fill="#FFFFFF">
                        <path d="M46.6424682,35.4290598 C46.6424682,48.4025641 36.1161525,58.9504274 23.3030853,58.9504274 C10.5263158,58.9504274 0,48.4025641 0,35.4290598 C0,22.3820513 10.5263158,11.7974359 23.3393829,11.7974359 C28.1306715,11.7974359 32.5589837,13.2675214 36.3339383,15.7666667 L36.3339383,5.62307692 C36.3339383,1.91111111 38.9110708,0 41.4519056,0 C44.0290381,0 46.6787659,1.91111111 46.6787659,5.62307692 L46.6787659,35.4290598 L46.6424682,35.4290598 Z M23.3393829,22.1982906 C16.1524501,22.1982906 10.2722323,28.1521368 10.2722323,35.4290598 C10.2722323,42.5957265 16.1524501,48.5863248 23.3393829,48.5863248 C30.5263158,48.5863248 36.3339383,42.6324786 36.3339383,35.4290598 C36.3339383,28.1521368 30.4174229,22.1982906 23.3393829,22.1982906 L23.3393829,22.1982906 Z" id="Shape"></path>
                        <path d="M100.435572,53.3641026 C100.435572,57.0760684 97.7858439,58.9136752 95.2087114,58.9136752 C92.9945554,58.9136752 90.7803993,57.517094 90.2359347,54.7606838 C86.46098,57.4435897 81.9600726,58.9136752 77.0598911,58.9136752 C64.246824,58.9136752 53.7205082,48.365812 53.7205082,35.3923077 C53.7205082,22.3452991 64.246824,11.7606838 77.0598911,11.7606838 C89.8729583,11.7606838 100.399274,22.308547 100.399274,35.3923077 L100.399274,53.3641026 L100.435572,53.3641026 Z M77.0961887,22.1615385 C69.9092559,22.1615385 64.0290381,28.1153846 64.0290381,35.3923077 C64.0290381,42.5589744 69.9092559,48.5495726 77.0961887,48.5495726 C84.1742287,48.5495726 90.0907441,42.5957265 90.0907441,35.3923077 C90.0907441,28.1153846 84.2831216,22.1615385 77.0961887,22.1615385 L77.0961887,22.1615385 Z" id="Shape"></path>
                        <path d="M185.190563,12.8632479 C182.359347,12.8632479 180.036298,15.1786325 180.036298,18.0820513 L180.036298,36.0905983 C179.818512,43.0735043 174.700544,48.8068376 168.239564,48.8068376 C161.560799,48.8068376 156.479129,42.8529915 156.479129,35.6495726 L156.479129,18.4863248 C156.479129,14.774359 153.756806,12.8632479 151.397459,12.8632479 C149.038113,12.8632479 146.279492,14.774359 146.279492,18.4863248 L146.279492,35.6495726 C146.279492,48.6230769 155.716878,59.1709402 168.239564,59.1709402 C172.740472,59.1709402 176.551724,57.8111111 180.036298,55.1282051 L180.036298,55.0179487 C180.036298,57.1863248 182.323049,59.2444444 185.190563,59.2444444 C188.021779,59.2444444 190.344828,56.9290598 190.344828,54.025641 L190.344828,18.0452991 C190.344828,15.1786325 188.021779,12.8632479 185.190563,12.8632479 L185.190563,12.8632479 Z" id="Shape"></path>
                        <path d="M123.609057,5.45510157 C123.681652,3.94826397 123.10089,2.40467422 121.86677,1.30211012 C119.725209,-0.609000989 116.494719,-0.388488169 114.607242,1.7798879 L104.371307,13.6140759 C102.48383,15.782452 102.701616,19.0533922 104.843176,20.9645033 C105.750617,21.7730503 106.984737,22.2508281 108.109964,22.2875802 L109.779655,22.2875802 L113.373122,22.2875802 L113.373122,38.2012554 C113.373122,43.8978366 115.696171,49.11664 119.434828,52.9021101 C123.10089,56.6140759 128.218857,58.9662127 133.881289,58.9662127 C137.547351,58.9662127 139.362233,56.356811 139.362233,53.7841614 C139.362233,51.1747597 137.583648,48.6021101 133.881289,48.6021101 C131.050073,48.6021101 128.509238,47.3892896 126.694356,45.5884349 C124.806879,43.6773238 123.609057,41.1046742 123.609057,38.2380076 L123.609057,22.2875802 L135.151706,22.2875802 C137.293267,22.2875802 139.325935,19.9721956 139.325935,17.0687768 C139.325935,14.2021101 137.039184,11.8499734 134.17167,11.8499734 L123.609057,11.8499734 L123.609057,5.45510157 L123.609057,5.45510157 Z" id="Shape"></path>
                        <path d="M66.7513612,84.8239316 C66.7513612,85.5222222 66.2068966,85.7794872 65.7350272,85.7794872 C65.2268603,85.7794872 64.7549909,85.5222222 64.7549909,84.8239316 L64.7549909,80.0461538 L58.6206897,80.0461538 L58.6206897,84.8239316 C58.6206897,85.5222222 58.076225,85.7794872 57.6043557,85.7794872 C57.0961887,85.7794872 56.6243194,85.5222222 56.6243194,84.8239316 L56.6243194,74.0923077 C56.6243194,73.3940171 57.1324864,73.1367521 57.6043557,73.1367521 C58.076225,73.1367521 58.6206897,73.3940171 58.6206897,74.0923077 L58.6206897,78.3555556 L64.7549909,78.3555556 L64.7549909,74.0923077 C64.7549909,73.3940171 65.2631579,73.1367521 65.7350272,73.1367521 C66.2068966,73.1367521 66.7513612,73.3940171 66.7513612,74.0923077 L66.7513612,84.8239316 L66.7513612,84.8239316 Z" id="Shape" opacity="0.8"></path>
                        <path d="M75.7168784,83.8316239 C75.7168784,83.9786325 75.7894737,84.0888889 75.9709619,84.0888889 L81.0889292,84.0888889 C81.6696915,84.0888889 81.9600726,84.5299145 81.9600726,84.934188 C81.9600726,85.3384615 81.7059891,85.8162393 81.0889292,85.8162393 L75.1724138,85.8162393 C74.446461,85.8162393 73.6842105,85.4119658 73.6842105,84.382906 L73.6842105,74.9376068 C73.6842105,73.908547 74.446461,73.5042735 75.1724138,73.5042735 L80.907441,73.5042735 C81.4882033,73.5042735 81.7785844,73.9820513 81.7785844,74.3863248 C81.7785844,74.7905983 81.5245009,75.2316239 80.907441,75.2316239 L75.9709619,75.2316239 C75.7894737,75.2316239 75.7168784,75.3051282 75.7168784,75.4888889 L75.7168784,78.5760684 L80.5807623,78.5760684 C81.1615245,78.5760684 81.4519056,79.017094 81.4519056,79.4213675 C81.4519056,79.825641 81.1978221,80.3034188 80.5807623,80.3034188 L75.7168784,80.3034188 L75.7168784,83.8316239 L75.7168784,83.8316239 Z" id="Shape" opacity="0.8"></path>
                        <path d="M95.2813067,82.5316668 L89.4373866,82.5316668 C89.2558984,83.3402138 89.1470054,84.1120086 89.0381125,84.9205556 C88.9655172,85.4718377 88.6025408,85.8026069 88.0580762,85.8026069 C87.5136116,85.8026069 87.1143376,85.4718377 87.1143376,84.736795 C87.1143376,82.1641454 89.292196,75.6957693 91.6515426,73.453889 C92.123412,73.0128633 92.7767695,73.0496155 93.2123412,73.453889 C95.5716878,75.6957693 97.7132486,82.1641454 97.7132486,84.736795 C97.7132486,85.4718377 97.277677,85.8026069 96.7332123,85.8026069 C96.1887477,85.8026069 95.7894737,85.4718377 95.7168784,84.9205556 C95.6079855,84.1120086 95.4627949,83.3402138 95.2813067,82.5316668 L95.2813067,82.5316668 Z M92.3411978,75.4385044 C91.3248639,76.9085898 90.4537205,78.8197009 89.8729583,80.8410685 L94.845735,80.8410685 C94.2649728,78.7829488 93.3938294,76.9085898 92.3774955,75.4385044 L92.3411978,75.4385044 L92.3411978,75.4385044 Z" id="Shape" opacity="0.8"></path>
                        <path d="M105.84392,83.6111111 C105.84392,83.7581197 105.916515,83.8683761 106.098004,83.8683761 L111.179673,83.8683761 C111.760436,83.8683761 112.050817,84.3094017 112.050817,84.7136752 C112.050817,85.1179487 111.760436,85.5957265 111.179673,85.5957265 L105.299456,85.5957265 C104.573503,85.5957265 103.811252,85.191453 103.811252,84.1623932 L103.811252,74.0923077 C103.811252,73.3940171 104.319419,73.1367521 104.791289,73.1367521 C105.263158,73.1367521 105.807623,73.3940171 105.807623,74.0923077 L105.807623,83.6111111 L105.84392,83.6111111 Z" id="Shape" opacity="0.8"></path>
                        <path d="M119.745917,74.8641026 L119.745917,84.6769231 C119.745917,85.3752137 119.23775,85.6324786 118.76588,85.6324786 C118.257713,85.6324786 117.749546,85.3752137 117.749546,84.6769231 L117.749546,74.8641026 L114.845735,74.8641026 C114.228675,74.8641026 113.974592,74.4230769 113.974592,74.0188034 C113.974592,73.6145299 114.228675,73.1367521 114.845735,73.1367521 L122.867514,73.1367521 C123.448276,73.1367521 123.738657,73.5777778 123.738657,74.0188034 C123.738657,74.4230769 123.448276,74.8641026 122.867514,74.8641026 L119.745917,74.8641026 L119.745917,74.8641026 Z" id="Shape" opacity="0.8"></path>
                        <path d="M138.983666,84.8239316 C138.983666,85.5222222 138.439201,85.7794872 137.967332,85.7794872 C137.459165,85.7794872 136.987296,85.5222222 136.987296,84.8239316 L136.987296,80.0461538 L130.852995,80.0461538 L130.852995,84.8239316 C130.852995,85.5222222 130.30853,85.7794872 129.836661,85.7794872 C129.328494,85.7794872 128.856624,85.5222222 128.856624,84.8239316 L128.856624,74.0923077 C128.856624,73.3940171 129.364791,73.1367521 129.836661,73.1367521 C130.30853,73.1367521 130.852995,73.3940171 130.852995,74.0923077 L130.852995,78.3555556 L136.987296,78.3555556 L136.987296,74.0923077 C136.987296,73.3940171 137.495463,73.1367521 137.967332,73.1367521 C138.439201,73.1367521 138.983666,73.3940171 138.983666,74.0923077 L138.983666,84.8239316 L138.983666,84.8239316 Z" id="Shape" opacity="0.8"></path>
                        <path d="M193.212341,57.8478632 C193.139746,57.8111111 193.103448,57.7008547 193.103448,57.6273504 C193.103448,57.4803419 193.212341,57.3333333 193.393829,57.3333333 C193.466425,57.3333333 193.53902,57.3700855 193.575318,57.3700855 C193.865699,57.5905983 194.15608,57.7376068 194.519056,57.7376068 C194.882033,57.7376068 195.099819,57.5538462 195.099819,57.2965812 L195.099819,57.2965812 C195.099819,57.0393162 194.954628,56.9290598 194.337568,56.7820513 C193.611615,56.5982906 193.212341,56.3777778 193.212341,55.7529915 L193.212341,55.7529915 C193.212341,55.1649573 193.684211,54.7606838 194.373866,54.7606838 C194.809437,54.7606838 195.136116,54.8709402 195.426497,55.091453 C195.499093,55.1282051 195.571688,55.2017094 195.571688,55.3119658 C195.571688,55.4589744 195.462795,55.6059829 195.281307,55.6059829 C195.208711,55.6059829 195.172414,55.6059829 195.136116,55.5692308 C194.882033,55.3854701 194.627949,55.3119658 194.373866,55.3119658 C194.010889,55.3119658 193.829401,55.4957265 193.829401,55.7162393 L193.829401,55.7162393 C193.829401,55.9735043 193.974592,56.0837607 194.627949,56.2675214 C195.353902,56.4512821 195.716878,56.708547 195.716878,57.2598291 L195.716878,57.2598291 C195.716878,57.8846154 195.208711,58.2888889 194.519056,58.2888889 C194.010889,58.2888889 193.575318,58.1418803 193.212341,57.8478632 L193.212341,57.8478632 Z" id="Shape"></path>
                        <path d="M196.406534,55.0547009 C196.406534,54.8709402 196.551724,54.7606838 196.696915,54.7606838 L196.76951,54.7606838 C196.914701,54.7606838 196.987296,54.834188 197.059891,54.9076923 L198.076225,56.5247863 L199.092559,54.9076923 C199.165154,54.7974359 199.23775,54.7606838 199.346642,54.7606838 L199.419238,54.7606838 C199.600726,54.7606838 199.709619,54.9076923 199.709619,55.0547009 L199.709619,57.9213675 C199.709619,58.1051282 199.564428,58.2153846 199.419238,58.2153846 C199.274047,58.2153846 199.128857,58.0683761 199.128857,57.9213675 L199.128857,55.8632479 L198.294011,57.1128205 C198.221416,57.2230769 198.14882,57.2598291 198.039927,57.2598291 C197.931034,57.2598291 197.858439,57.1863248 197.785844,57.1128205 L196.950998,55.8632479 L196.950998,57.8846154 C196.950998,58.0683761 196.805808,58.1786325 196.660617,58.1786325 C196.479129,58.1786325 196.370236,58.0683761 196.370236,57.8846154 L196.370236,55.0547009 L196.406534,55.0547009 Z" id="Shape"></path>
                    </g>
                    <path d="M66.2504537,2 L88.6098004,2 C89.9165154,2 90.8602541,3.13931624 90.8602541,4.27863248 C90.8602541,5.49145299 89.9165154,6.55726496 88.6098004,6.55726496 L66.2504537,6.55726496 C64.9437387,6.55726496 64,5.52820513 64,4.27863248 C64.0362976,3.13931624 64.9437387,2 66.2504537,2 L66.2504537,2 Z" id="accent" opacity="0.8" fill="#FF8300"></path>
                </g>
            </g>
        </g>
    </g>
</svg>