<?xml version="1.0" encoding="UTF-8" standalone="no"?>
<svg width="55px" height="44px" viewBox="0 0 55 44" version="1.1" xmlns="http://www.w3.org/2000/svg" xmlns:xlink="http://www.w3.org/1999/xlink" xmlns:sketch="http://www.bohemiancoding.com/sketch/ns">
    <!-- Generator: Sketch 3.2.2 (9983) - http://www.bohemiancoding.com/sketch -->
    <title>family</title>
    <desc>Created with Sketch.</desc>
    <defs></defs>
    <g id="Page-1" stroke="none" stroke-width="1" fill="none" fill-rule="evenodd" sketch:type="MSPage">
        <path d="M35.7306942,13.3714509 L35.7306942,14.096536 C35.7306942,23.1981424 35.7306942,32.3006654 35.7297764,41.4022717 C35.7297764,42.5224412 35.2286464,43.2951932 34.3080726,43.6068606 C32.925835,44.0743618 31.5527757,43.0751926 31.5500222,41.5755222 C31.5417619,37.4413451 31.5472688,33.3080846 31.5472688,29.1739075 L31.5472688,25.5594817 L29.9961523,25.5594817 L29.9961523,26.2359834 C29.9961523,31.2950795 29.9979879,36.353259 29.9943166,41.4123551 C29.9933988,42.6104415 29.3958977,43.4134435 28.3440756,43.6609441 C27.1215388,43.9478615 25.8852347,43.0376092 25.7980417,41.7817727 C25.7851923,41.6021056 25.7934526,41.4196884 25.7934526,41.238188 L25.7934526,14.0415359 L25.7934526,13.4447844 C25.7264518,13.3907009 25.7145201,13.3723675 25.699835,13.3696175 C24.6048752,13.2147005 24.5819297,13.2247838 24.2808846,14.2679531 C23.4796274,17.0500435 22.6820415,19.8339672 21.8844555,22.6169742 C21.6210411,23.5373099 21.156624,23.9424776 20.3443529,23.9534776 C19.5063829,23.9653943 19.0337054,23.5693933 18.7583592,22.6087242 C17.9359921,19.7386336 17.103529,16.8703764 16.3096144,13.9920358 C16.1691879,13.4805345 15.959007,13.2467839 15.4239177,13.3311174 C15.2339289,13.3613675 15.0356797,13.3357008 14.7640048,13.3357008 C16.1076939,18.9475483 17.4321087,24.4796456 18.7739622,30.0859931 L15.2522853,30.0859931 L15.2522853,30.7771615 C15.2522853,34.3310872 15.2532031,37.8840962 15.2513675,41.4380218 C15.2513675,41.6919391 15.2559566,41.9476898 15.2256685,42.1988571 C15.1192013,43.0586926 14.3821915,43.7177776 13.521276,43.738861 C12.6172229,43.760861 11.8600211,43.1393595 11.7251015,42.2492739 C11.6902243,42.0173566 11.6856352,41.7799394 11.6856352,41.5443554 C11.6828817,37.9913464 11.6837995,34.4374208 11.6837995,30.8834951 L11.6837995,30.1373266 L10.2051909,30.1373266 L10.2051909,30.7909116 C10.2051909,34.3805873 10.20978,37.9711797 10.1987661,41.5608555 C10.1978483,41.9174397 10.1620533,42.293274 10.0445723,42.6269415 C9.7793222,43.3813601 8.97714716,43.8259445 8.17680777,43.7278609 C7.36637235,43.6288607 6.72481588,42.974359 6.64037641,42.1328569 C6.61008833,41.8276061 6.62293782,41.517772 6.62293782,41.2088546 C6.62202,37.7282624 6.62202,34.2467536 6.62202,30.7652448 L6.62202,30.1079932 L3.03609567,30.1079932 C4.39446987,24.489729 5.7317342,18.9576317 7.09010841,13.3402841 C6.67800704,13.3402841 6.31363234,13.2944507 5.97036751,13.3613675 C5.82718753,13.3888676 5.67482934,13.6391182 5.62251358,13.8160353 C4.85980482,16.4212086 4.11178119,19.0318818 3.36192191,21.6407218 C3.24168744,22.0587228 3.13338463,22.4794739 3.00488978,22.8947249 C2.7405575,23.7417271 1.98610913,24.1487281 1.12244012,23.9195609 C0.270702786,23.6931436 -0.179029213,22.9515584 0.0669466559,22.0724729 C0.804874263,19.4407162 1.56758302,16.8162929 2.32294921,14.1891196 C2.56341816,13.3540342 2.78369506,12.512532 3.06363028,11.6911966 C3.8290925,9.44352427 5.49860782,8.26835463 7.86933793,8.26835463 C9.90231013,8.26743796 11.9352823,8.26835463 13.9691724,8.26835463 C16.3197104,8.26835463 17.9525129,9.35552404 18.7308246,11.582113 C19.2677496,13.1175336 19.6679193,14.7006209 20.1295829,16.2626248 C20.1791452,16.4303753 20.2305432,16.597209 20.3296678,16.9226265 C20.6178634,15.932624 20.8610858,15.0883719 21.1079795,14.2450364 C21.3576266,13.3943676 21.5834104,12.5345321 21.8679348,11.69578 C22.6297257,9.44902428 24.3010767,8.26835463 26.6690533,8.26835463 L34.8376549,8.26835463 C37.2322484,8.26835463 38.8980924,9.38119078 39.6378557,11.6792799 C40.4648118,14.2450364 41.1623553,16.852043 41.9158859,19.4416329 C42.1233133,20.1538847 42.3454259,20.8633865 42.5262365,21.582055 C42.6014977,21.8818057 42.7318282,21.989056 43.0402159,22.0018894 C44.1085589,22.0431395 45.1750662,22.1485564 46.2434091,22.1668898 C48.0946529,22.1980565 49.9468145,22.1494731 51.7971404,22.1953065 C53.5731229,22.2393066 54.9571961,23.6454768 54.982895,25.411898 C55.0122653,27.4606532 54.9966623,29.5094083 54.988402,31.5581635 C54.9847307,32.3107487 54.5423412,32.7965833 53.9035382,32.80025 C53.2445432,32.803 52.8094963,32.3006654 52.8076607,31.5205801 C52.8049072,29.9429928 52.8067428,28.3654054 52.8067428,26.7878181 L52.8067428,26.1681499 L51.6723168,26.1681499 L51.6723168,26.8730683 C51.6723168,32.0045813 51.6732346,37.1351776 51.671399,42.2666906 C51.6704812,43.2796098 51.2235026,43.8644446 50.37819,43.9808616 C49.6163991,44.0853619 48.9161021,43.600444 48.7720043,42.8460254 C48.7251955,42.5994414 48.7215242,42.3418574 48.7206064,42.0888568 C48.7178529,39.5689338 48.7187708,37.0480941 48.7187708,34.528171 L48.7187708,33.8360859 L47.5843447,33.8360859 L47.5843447,34.3915873 C47.5843447,37.0389274 47.588016,39.6862674 47.5815913,42.3336074 C47.5797556,43.3190266 47.0244743,43.9588615 46.1663122,43.9982783 C45.319164,44.0376951 44.6464016,43.3960268 44.6399769,42.5132745 C44.6298808,41.099771 44.6372234,39.6853507 44.6372234,38.2709305 C44.6372234,34.0285864 44.6307987,29.7853257 44.6482373,25.5429816 C44.6500729,25.1249806 44.5399344,24.9361468 44.1278331,24.8325632 C43.0741753,24.5676458 42.0370382,24.232145 40.9806269,23.9763943 C40.2454528,23.7976439 39.8333514,23.3851428 39.6396913,22.656391 C38.8779004,19.8064671 38.0885748,16.9638766 37.3102631,14.1185361 C37.0927397,13.3247007 37.0927397,13.3237841 36.2703726,13.3375341 C36.1115897,13.3393674 35.9528067,13.3567842 35.7306942,13.3714509 Z M10.9036522,7.18576856 C8.92299576,7.17201852 7.27917941,5.5293477 7.29478236,3.57867611 C7.3103853,1.6105878 8.94869473,-0.000916278107 10.930269,3.90876908e-07 C12.9393779,0.00183372885 14.5914546,1.65458791 14.5620843,3.63367624 C14.5336319,5.60084788 12.8879799,7.19860192 10.9036522,7.18576856 Z M33.8592584,3.58325945 C33.8647653,5.54218107 32.2686756,7.15735182 30.3183072,7.16835185 C28.3486647,7.17935188 26.7030127,5.53668106 26.7204513,3.57684277 C26.7378898,1.61975449 28.3523359,0.0137504256 30.2981152,0.0174171016 C32.2521548,0.0210837775 33.8537515,1.6252545 33.8592584,3.58325945 Z M47.9395412,20.9275533 C46.5664819,20.8826365 45.4816182,19.7423003 45.518331,18.3810469 C45.5568795,16.99046 46.7316896,15.8849572 48.1111736,15.943624 C49.5227814,16.0041242 50.5700145,17.1352937 50.5232057,18.552464 C50.4791503,19.9100507 49.3226966,20.9733868 47.9395412,20.9275533 Z" id="family" fill="#FFFFFF" sketch:type="MSShapeGroup"></path>
    </g>
</svg>