<?xml version="1.0" encoding="UTF-8" standalone="no"?>
<svg width="167px" height="56px" viewBox="0 0 167 56" version="1.1" xmlns="http://www.w3.org/2000/svg" xmlns:xlink="http://www.w3.org/1999/xlink" xmlns:sketch="http://www.bohemiancoding.com/sketch/ns">
    <!-- Generator: Sketch 3.2.2 (9983) - http://www.bohemiancoding.com/sketch -->
    <title>Group</title>
    <desc>Created with Sketch.</desc>
    <defs></defs>
    <g id="Page-1" stroke="none" stroke-width="1" fill="none" fill-rule="evenodd" sketch:type="MSPage">
        <g id="what-we-do" sketch:type="MSArtboardGroup" transform="translate(-862.000000, -3908.000000)" fill="#FFFFFF">
            <g id="section-single-door" sketch:type="MSLayerGroup" transform="translate(0.000000, 3728.000000)">
                <g id="nudges" transform="translate(840.000000, 60.000000)" sketch:type="MSShapeGroup">
                    <g id="Rectangle-77-+-Are-you-experiencing-+-Group">
                        <g id="Group" transform="translate(22.000000, 120.000000)">
                            <path d="M104.063885,25.048 C103.162085,25.5569231 102.362341,26.0190769 101.552081,26.4621538 C100.310096,27.1421538 99.0427519,27.7686154 97.560163,27.4030769 C96.0608741,27.032 95.3365889,25.3421538 96.1227259,24.0363077 C97.1958556,22.2566154 98.6240148,20.7735385 100.268656,19.5230769 C101.28983,18.7464615 102.384607,18.0184615 103.546185,17.4830769 C104.444893,17.0689231 105.525444,17.1156923 106.394463,17.696 C106.86763,18.0116923 107.170704,18.5784615 107.672322,19.1766154 C107.909833,19.272 108.407741,19.4123077 108.845033,19.6590769 C109.649107,20.1132308 109.688693,20.9187692 109.223567,21.7070769 C108.3997,23.1033846 107.604285,24.5316923 106.965356,26.0184615 C106.286841,27.5987692 105.804396,29.2615385 105.236596,30.8886154 C105.305252,30.9433846 105.374526,30.9981538 105.4438,31.0535385 C106.247256,30.6215385 107.069267,30.2196923 107.849219,29.7501538 C108.93843,29.0947692 110.088874,28.4935385 111.036444,27.6676923 C111.708774,27.0818462 112.266678,26.2252308 112.560474,25.3815385 C113.129511,23.7446154 114.014611,23.6621538 115.447719,23.9667692 C116.194889,24.1255385 116.590122,23.9649231 117.081226,23.5138462 C118.093122,22.5827692 119.234289,21.9132308 120.671726,21.8061538 C121.529611,21.7427692 122.088133,22.1489231 122.657789,22.6775385 C122.85757,22.8627692 123.209507,22.9993846 123.476089,22.9753846 C124.121204,22.9181538 124.752711,22.72 125.397207,22.6412308 C126.167263,22.5476923 126.905774,22.6289231 127.49213,23.2406154 C127.889219,23.6535385 128.198478,23.3507692 128.480522,23.0633846 C129.482522,22.0406154 130.619359,21.2227692 132.039478,20.9046154 C133.362489,20.608 134.61437,20.6436923 135.650389,21.7464615 C136.448896,22.5956923 136.486626,22.4516923 137.439144,21.7378462 C138.712674,20.7827692 140.064137,19.8849231 141.495389,19.1956923 C142.882726,18.5286154 144.20017,19.0338462 145.230004,20.1353846 C145.489781,20.4135385 145.596167,20.8344615 145.852233,21.3501538 C146.090981,21.0381538 146.363748,20.8024615 146.482504,20.5064615 C147.45667,18.0732308 148.342389,15.6030769 149.375315,13.1950769 C150.293815,11.0541538 151.345296,8.96861538 152.381315,6.87938462 C152.788919,6.05723077 153.905963,5.80738462 154.764467,6.25353846 C155.576581,6.67569231 155.722552,7.45292308 155.326081,8.39446154 C154.685296,9.91876923 154.147804,11.4867692 153.536089,13.024 C153.001689,14.3673846 152.493267,15.7286154 151.847533,17.0196923 C151.15603,18.4030769 150.246189,19.6793846 149.568911,21.0689231 C149.131,21.9686154 148.92627,22.9827692 148.648556,23.9550769 C148.607115,24.0972308 148.694326,24.3298462 148.80133,24.4523077 C149.576952,25.3421538 149.358615,26.2283077 148.899674,27.1747692 C148.633093,27.7255385 148.474752,28.3366154 148.331256,28.936 C148.093126,29.9304615 146.953815,30.4307692 146.061911,29.8769231 C145.187944,29.3347692 144.918889,28.5126154 145.032696,27.528 C145.115578,26.8129231 145.182996,26.0966154 145.280722,25.1489231 C144.191511,25.7390769 143.251981,26.2 142.361315,26.7409231 C141.00243,27.5667692 139.702304,28.4289231 137.963648,28.2547692 C137.143493,28.1723077 136.532396,27.848 135.940474,27.368 C135.663996,27.1433846 135.447515,26.952 135.104237,27.3556923 C133.781844,28.9107692 132.057415,29.9101538 130.227837,30.7630769 C129.118833,31.2793846 128.046322,31.8418462 126.765989,31.8578462 C125.4003,31.8744615 123.915237,30.6129231 123.990078,29.2510769 C124.058733,27.9963077 124.337067,26.7532308 124.525096,25.4910769 C123.855241,25.2910769 122.286678,25.944 121.909381,26.7003077 C120.995211,28.5292308 119.703744,30.0553846 118.044259,31.2227692 C116.772585,32.1175385 115.408752,32.8929231 114.037496,33.6326154 C113.102915,34.1366154 111.6729,33.5286154 110.860785,32.4129231 C110.023311,31.2621538 109.999189,31.2264615 108.775759,32.0406154 C107.368011,32.9778462 105.960881,33.928 104.649622,34.9907692 C104.055226,35.4732308 103.565359,36.1833846 103.253626,36.8892308 C102.523156,38.5458462 101.934944,40.264 101.278078,41.9532308 C100.181444,44.7716923 99.1237778,47.6055385 97.9547778,50.3938462 C97.4160481,51.6787692 96.6973296,52.8836923 95.4256556,53.6695385 C93.5181444,54.8498462 91.9353556,53.8036923 91.3805444,51.9132308 C90.6061593,49.2738462 91.3817815,46.9526154 92.6305704,44.6313846 C93.9183259,42.2369231 95.4701889,40.0621538 97.3529593,38.1150769 C98.4495926,36.9809231 99.5567407,35.8492308 100.743059,34.8116923 C101.488993,34.1587692 101.959685,33.3809231 102.213278,32.4812308 C102.852826,30.2129231 103.428667,27.9267692 104.0243,25.6461538 C104.061411,25.5027692 104.045948,25.3458462 104.063885,25.048 L104.063885,25.048 Z M99.3625259,40.0750769 C99.1287259,40.1815385 98.9530667,40.2104615 98.8590519,40.3126154 C98.0958,41.1458462 97.2459556,41.9249231 96.6218704,42.8529231 C95.8969667,43.9304615 95.3471037,45.1292308 94.7694074,46.2990769 C94.0092481,47.84 93.4037185,49.4203077 93.9894556,51.288 C94.2622222,51.1292308 94.5609667,51.0578462 94.6753926,50.8726154 C95.4633852,49.6018462 96.2606556,48.3329231 96.9608185,47.0129231 C97.5632556,45.8769231 98.0828111,44.6916923 98.5596889,43.4972308 C98.9332741,42.5612308 99.1930519,41.5803077 99.4819,40.6123077 C99.5190111,40.488 99.4219037,40.3236923 99.3625259,40.0750769 L99.3625259,40.0750769 Z M133.407022,23.3987692 C131.959689,23.816 130.717704,24.3569231 129.897548,25.5470769 C129.373663,26.3064615 128.854107,26.8806154 127.749433,26.1784615 C127.542848,26.9550769 127.363478,27.592 127.20823,28.2344615 C127.140811,28.5138462 127.1204,28.8049231 127.078959,29.0904615 C127.406774,29.0775385 127.782833,29.1661538 128.053744,29.0363077 C129.600659,28.2953846 131.176026,27.5729231 132.278844,26.1858462 C132.876333,25.4344615 133.452793,24.6553846 133.407022,23.3987692 L133.407022,23.3987692 Z M138.289607,25.6196923 C138.370015,25.7058462 138.451041,25.792 138.531448,25.8775385 C140.4136,24.9643077 142.340904,24.1323077 144.005956,22.6824615 C143.341048,22.3329231 142.611815,21.8190769 142.034737,21.9532308 C140.448856,22.3206154 139.412219,23.5421538 138.512893,24.8344615 C138.365685,25.0461538 138.360737,25.3556923 138.289607,25.6196923 L138.289607,25.6196923 Z M99.0173926,24.7686154 C99.3557222,24.6615385 99.6322,24.6258462 99.8536296,24.496 C100.973767,23.8393846 102.092667,23.1778462 103.182496,22.4726154 C103.471344,22.2855385 103.77813,21.9698462 103.855444,21.6590769 C103.929048,21.3649231 103.768233,20.9630769 103.5901,20.6855385 C103.530722,20.5926154 103.046422,20.6584615 102.843548,20.7876923 C101.291685,21.7784615 99.8177556,22.8572308 99.0173926,24.7686154 L99.0173926,24.7686154 Z M117.404093,27.9784615 C116.910515,27.8147692 116.420648,27.464 116.105822,27.5809231 C114.764256,28.0806154 113.900185,29.0516923 113.7103,30.6387692 C115.213919,30.192 116.405804,29.4221538 117.404093,27.9784615 L117.404093,27.9784615 Z" id="Fill-1"></path>
                            <path d="M49.1524296,27.0086154 C49.7443519,27.0473846 50.2441148,27.08 50.7438778,27.1126154 C50.6096593,27.5907692 50.5008,28.0775385 50.3338,28.544 C50.2039111,28.9070769 49.9855741,29.2375385 49.8358926,29.5944615 C49.3627259,30.7224615 47.8733333,31.0123077 47.1076074,30.0806154 C46.527437,29.3747692 46.0548889,28.5963077 46.1421,27.6129231 C46.1656037,27.3415385 46.1451926,27.0664615 46.1451926,26.5353846 C45.5718259,26.9144615 45.1908185,27.1513846 44.8252741,27.4104615 C43.9346074,28.0424615 43.084763,28.7390769 42.1563667,29.3101538 C40.8364481,30.1218462 39.0303741,29.96 38.1681593,28.8738462 C37.6937556,28.2763077 37.4939741,27.4553846 37.2113111,26.7193846 C37.1148222,26.4695385 37.1426556,26.1723077 37.0962667,25.7292308 C36.7523704,25.9513846 36.4919741,26.0553846 36.3194074,26.24 C34.4780778,28.2067692 32.4295444,29.9175385 30.1342222,31.3409231 C28.9281111,32.0886154 27.6354074,32.3132308 26.4410481,31.5649231 C25.2943148,30.8461538 24.7376481,29.6941538 25.082163,28.2683077 C25.1044296,28.1753846 25.0704111,28.0695385 25.0524741,27.8492308 C24.2051037,28.2486154 23.3868037,28.5661538 22.6377778,29.0006154 C20.8626296,30.0307692 19.0782037,31.0461538 17.0612148,31.5175385 C15.365237,31.9138462 14.227163,31.3243077 13.127437,29.6935385 C12.9592,29.4436923 12.6412815,29.2892308 12.3821222,29.1052308 C11.9943111,28.8295385 11.5019704,28.6406154 11.2217815,28.2843077 C10.5562556,27.4375385 10.8098481,26.8633846 11.8761741,26.664 C12.5979852,26.5286154 12.9629111,26.152 13.3321667,25.4701538 C14.1418074,23.976 15.1642185,22.5913846 16.1544667,21.2006154 C16.7092778,20.4203077 17.3704741,19.7138462 17.9896111,18.9778462 C18.5271037,18.3384615 19.2742741,18.2781538 19.9991778,18.4086154 C20.6337778,18.5224615 21.0283926,18.9704615 21.0580815,19.6781538 C21.1001407,20.6984615 20.9034519,21.6756923 20.2812222,22.4763077 C19.2155148,23.848 18.070637,25.1593846 16.949263,26.488 C16.5806259,26.9236923 16.0882852,27.2849231 15.8297444,27.7729231 C15.6503741,28.1113846 15.6874852,28.6350769 15.8062407,29.0215385 C15.8520111,29.1692308 16.4328,29.2886154 16.7055667,29.2073846 C17.6444778,28.928 18.5926667,28.6301538 19.4691074,28.2006154 C21.4508407,27.2283077 23.3911333,26.1710769 25.3506,25.1526154 C26.9037,24.3452308 27.8345704,23.0067692 28.5662778,21.4836923 C28.7784296,21.0424615 29.0252185,20.6055385 29.3270556,20.2215385 C29.9529963,19.4258462 30.7898519,19.2627692 31.7021667,19.6947692 C32.5309815,20.088 32.780863,20.8098462 32.2384222,21.5372308 C31.2914704,22.8067692 30.1812296,23.9655385 29.3270556,25.2904615 C28.6813222,26.2935385 28.3139222,27.4781538 27.8562185,28.5950769 C27.7702444,28.8067692 27.8438481,29.0830769 27.8438481,29.6301538 C28.9336778,29.0086154 29.8979481,28.6049231 30.6859407,27.9809231 C32.6367481,26.4356923 34.5770407,24.8633846 36.3849704,23.1581538 C37.5150037,22.0923077 38.1718704,20.6615385 38.6920444,19.1636923 C39.4577704,16.96 40.3874037,14.8135385 41.2347741,12.6381538 C41.5533111,11.8190769 41.8539111,10.9926154 42.1266778,10.1581538 C42.3029556,9.61723077 42.4903667,9.07876923 43.1262037,8.98707692 C43.8894556,8.87692308 44.6817778,8.90461538 45.2347333,9.53230769 C45.7270741,10.0910769 45.4444111,10.7113846 45.1685519,11.2806154 C43.736063,14.2363077 42.0691556,17.0849231 41.0677741,20.2369231 C40.7176926,21.3390769 40.2309185,22.4123077 40.0156741,23.5378462 C39.8183667,24.5686154 39.8653741,25.6529231 39.8814556,26.7126154 C39.8894963,27.2196923 40.2550407,27.4664615 40.7572778,27.2190769 C41.2174556,26.9913846 41.6875296,26.7452308 42.0765778,26.4166154 C43.5226741,25.1938462 44.9403185,23.9366154 46.3610556,22.6836923 C46.5119741,22.5507692 46.6727889,22.3784615 46.7247444,22.1956923 C46.8663852,21.6972308 46.9938,21.2209231 47.6506667,21.232 C48.4856667,21.2461538 49.4041667,21.1692308 49.8996,21.9858462 C50.0962889,22.3113846 50.0096963,22.8695385 49.9181556,23.2929231 C49.6886852,24.3513846 49.3713852,25.3907692 49.1171741,26.4449231 C49.0676926,26.6510769 49.1431519,26.8873846 49.1524296,27.0086154" id="Fill-2"></path>
                            <path d="M75.2031926,28.2449231 C73.6513296,28.4110769 72.1996667,28.3323077 70.9434556,29.3766154 C69.7602296,30.36 68.1397111,30.3403077 66.8272148,29.9415385 C65.8505741,29.6449231 65.0384593,28.5864615 64.3215963,27.728 C63.4068074,26.6326154 63.2602185,25.2283077 63.1575444,23.8430769 C63.1396074,23.5981538 62.9750815,23.3636923 62.8785926,23.1243077 C62.6447926,23.2695385 62.3392444,23.3624615 62.1889444,23.5673846 C61.3459037,24.7175385 60.5511074,25.9015385 59.7192,27.0596923 C58.9305889,28.1575385 58.1320815,29.2498462 57.3094519,30.3230769 C56.8301,30.9483077 56.2233333,31.4172308 55.3654481,31.2024615 C54.4772556,30.9790769 54.1172778,30.2369231 53.8482222,29.464 C53.7944111,29.3083077 53.9051259,29.0726154 53.9873889,28.8953846 C54.4698333,27.8658462 55.0005222,26.8572308 55.4384333,25.8098462 C55.6116185,25.3963077 55.5250259,24.8806154 55.6740889,24.4516923 C55.7860407,24.1298462 56.0458185,23.6818462 56.3099259,23.6270769 C56.8536037,23.5138462 57.5104704,23.4744615 57.9997185,23.6843077 C58.6386481,23.9581538 58.9002815,23.6732308 59.2398481,23.2855385 C60.0247481,22.3889231 60.7632593,21.44 61.6335148,20.632 C62.6299481,19.7076923 63.9616185,19.6270769 65.114537,20.2972308 C65.7794444,20.6836923 66.030563,21.352 66.0546852,22.0843077 C66.0936519,23.2510769 65.9959259,24.432 66.1412778,25.5833846 C66.2303444,26.2904615 66.6039296,26.9876923 66.9608148,27.6283077 C67.3078037,28.2516923 67.9665259,28.3858462 68.6110222,28.168 C69.4447852,27.8861538 70.2816407,27.5716923 71.0448926,27.1427692 C71.3281741,26.984 71.5601185,26.4590769 71.5514593,26.1076923 C71.5075444,24.2996923 72.7204593,23.096 73.614837,21.7593846 C74.0125444,21.1661538 75.5712111,21.2996923 76.1489074,21.8418462 C76.721037,22.3790769 76.7742296,23.4443077 76.2633333,24.1089231 C76.1891111,24.2049231 76.1167444,24.3033846 76.0437593,24.4006154 C76.1049926,24.4670769 76.1656074,24.5329231 76.2268407,24.5987692 C76.5769222,24.2806154 76.9597852,23.992 77.269663,23.6387692 C78.0793037,22.7156923 79.393037,22.4572308 80.4216333,23.0578462 C81.3920889,23.624 81.4916704,24.7415385 80.4779185,25.1938462 C79.192637,25.768 78.7460667,26.9193846 78.2827963,27.9821538 C77.3847074,30.0436923 76.701863,32.1981538 75.9404667,34.3175385 C75.8538741,34.5593846 75.8464519,34.8283077 75.7852185,35.08 C75.6231667,35.7433846 75.4747222,36.3163077 76.5620778,36.2 C77.1094667,36.1415385 77.3933667,36.8941538 77.0284407,37.3704615 C76.6035185,37.9249231 76.1854,38.5273846 75.6349185,38.9366154 C74.4176741,39.84 74.0508926,41.1569231 73.7323556,42.4892308 C73.4459815,43.6886154 73.3191852,44.9243077 73.0668296,46.1329231 C72.8138556,47.3446154 72.4909889,48.5421538 72.2009037,49.7464615 C71.6157852,52.1772308 70.0496963,53.88 67.9485889,55.0621538 C66.8779333,55.6646154 65.6037852,55.5636923 64.4626185,55.0553846 C63.7871963,54.7544615 63.3857778,54.1852308 63.4136111,53.3753846 C63.4433,52.4923077 63.3499037,51.5993846 63.4463926,50.7255385 C63.5410259,49.864 63.709263,48.9846154 64.012337,48.1753846 C65.2141185,44.9649231 67.3554296,42.4375385 70.1084556,40.4523077 C71.808763,39.2270769 72.6047963,37.584 73.094663,35.6363077 C73.6513296,33.4264615 74.3793259,31.2596923 75.0269148,29.072 C75.0992815,28.8264615 75.1351556,28.5698462 75.2031926,28.2449231 L75.2031926,28.2449231 Z M71.0362333,43.4966154 C70.9601556,43.4701538 70.8834593,43.4436923 70.8073815,43.4178462 C70.6614111,43.5156923 70.5024519,43.5993846 70.3713259,43.7144615 C68.819463,45.0707692 67.6943778,46.7310769 66.9379296,48.6313846 C66.4684741,49.8098462 66.0404593,51.0061538 66.1610704,52.32 C66.2136444,52.8923077 66.4610519,53.2412308 66.9781333,52.856 C67.686337,52.3286154 68.5695815,51.776 68.8794593,51.0289231 C69.6266296,49.2289231 70.1004148,47.3150769 70.6490407,45.4363077 C70.8327407,44.8055385 70.9100556,44.144 71.0362333,43.4966154 L71.0362333,43.4966154 Z" id="Fill-3"></path>
                            <path d="M14.5191037,3.08738462 C11.9510148,3.67261538 9.8264037,4.78215385 8.4099963,6.84923077 C7.82116667,7.70892308 7.65107407,8.86215385 7.3313,9.89415385 C6.66515556,12.0461538 6.0188037,14.2049231 5.38605926,16.3667692 C5.30688889,16.6363077 5.35637037,16.9427692 5.34585556,17.232 C5.69841111,17.2227692 6.09364444,17.312 6.39300741,17.1815385 C6.83834074,16.9883077 7.20574074,16.6227692 7.62447778,16.36 C9.87155556,14.952 12.125437,13.5550769 14.3725148,12.1489231 C15.1747333,11.6467692 16.0629259,11.6510769 16.9498815,11.7218462 C17.7477704,11.7852308 18.2277407,12.408 18.1887741,13.232 C18.1238296,14.6227692 16.965963,15.2781538 15.7419148,14.6990769 C15.4499741,14.5612308 14.9062963,14.6726154 14.6106444,14.8676923 C12.6604556,16.1513846 10.7381,17.4775385 8.82502222,18.816 C7.93064444,19.4418462 7.10615926,20.1913846 5.89571852,20.0750769 C5.74047037,20.0603077 5.58027407,20.0689231 5.42935556,20.0338462 C4.36488519,19.7852308 4.32653704,19.7704615 3.99191852,20.8369231 C3.03197778,23.8996923 2.05904815,26.9649231 2.21367778,30.2375385 C2.22542963,30.4873846 2.26006667,30.736 2.29161111,31.0578462 C2.70230741,30.9723077 3.02208148,30.8775385 3.34742222,30.8443077 C3.91645926,30.7870769 4.2585,31.1415385 4.19231852,31.68 C4.09459259,32.4763077 3.42040741,33.2941538 2.72766667,33.4553846 C1.95080741,33.6363077 1.19126667,33.3704615 0.741603704,32.5507692 C0.402655556,31.9323077 0.1336,31.208 0.0835,30.5126154 C-0.0828814815,28.2283077 0.549244444,26.0418462 1.13188889,23.8633846 C1.8134963,21.3138462 2.5285037,18.7723077 3.25773704,16.2350769 C3.5138037,15.3470769 3.85708148,14.4836923 4.16015556,13.6086154 C2.48273333,13.0726154 2.16667037,12.0972308 3.01960741,10.3544615 C4.25293333,7.83507692 5.79984815,5.51446154 8.01723704,3.77723077 C10.4306963,1.88676923 13.0618741,0.36 16.3165185,0.462153846 C16.9647259,0.482461538 17.536237,0.660923077 17.7910667,1.28492308 C18.0489889,1.91507692 18.0100222,2.54646154 17.5065481,3.096 C16.6455704,4.03507692 15.8050037,4.99323077 14.9471185,5.936 C14.7906333,6.10769231 14.6155926,6.28984615 14.410863,6.38523077 C14.0440815,6.55630769 13.7100815,7.06461538 13.2393889,6.63076923 C12.9752815,6.38769231 13.2332037,5.38892308 13.6915259,5.19692308 C14.7430074,4.75692308 14.3323111,3.89538462 14.5191037,3.08738462" id="Fill-4"></path>
                            <path d="M166.912789,5.29907692 C166.693215,6.09907692 166.484774,7.22584615 166.075315,8.27507692 C165.19207,10.5378462 164.281611,12.7963077 163.240026,14.9901538 C162.309156,16.9526154 161.277467,18.8830769 160.115889,20.7181538 C159.447889,21.7741538 158.444033,22.6233846 157.566356,23.5415385 C157.378326,23.7384615 157.093807,23.8633846 156.832174,23.9673846 C156.375089,24.1489231 155.897593,24.2209231 155.554933,23.7569231 C155.204233,23.2812308 155.513493,22.9138462 155.762756,22.4923077 C157.108652,20.2196923 158.456404,17.9464615 159.729315,15.6332308 C160.540811,14.1587692 161.270044,12.6344615 161.952889,11.0966154 C162.834896,9.10892308 163.690307,7.10707692 163.651959,4.85538462 C163.632167,3.68184615 164.0775,3.25046154 165.090633,3.27261538 C166.375296,3.30030769 166.920211,3.81292308 166.912789,5.29907692" id="Fill-5"></path>
                            <path d="M157.672741,28.8553846 C158.684637,28.8664615 159.878378,29.7950769 159.883944,30.5741538 C159.890748,31.5729231 159.080489,32.2775385 157.974578,32.2356923 C157.019585,32.1993846 155.997793,31.2756923 155.994081,30.4449231 C155.99037,29.4190769 156.597756,28.8436923 157.672741,28.8553846" id="Fill-6"></path>
                            <path d="M55.1508222,21.0344615 C54.3683963,21.0276923 53.4109296,20.1261538 53.4282481,19.4129231 C53.4437111,18.776 54.0894444,18.272 54.8755815,18.2843077 C55.8850037,18.2990769 56.7701037,18.8972308 56.7744333,19.5673846 C56.7793815,20.3249231 55.9858222,21.0412308 55.1508222,21.0344615" id="Fill-7"></path>
                        </g>
                    </g>
                </g>
            </g>
        </g>
    </g>
</svg>