<?xml version="1.0" encoding="UTF-8" standalone="no"?>
<svg width="116px" height="56px" viewBox="0 0 116 56" version="1.1" xmlns="http://www.w3.org/2000/svg" xmlns:xlink="http://www.w3.org/1999/xlink" xmlns:sketch="http://www.bohemiancoding.com/sketch/ns">
    <!-- Generator: Sketch 3.2.2 (9983) - http://www.bohemiancoding.com/sketch -->
    <title>great</title>
    <desc>Created with Sketch.</desc>
    <defs></defs>
    <g id="Page-1" stroke="none" stroke-width="1" fill="none" fill-rule="evenodd" sketch:type="MSPage">
        <g id="what-we-do" sketch:type="MSArtboardGroup" transform="translate(-864.000000, -2402.000000)" fill="#FFFFFF">
            <g id="section-better-mirror" sketch:type="MSLayerGroup" transform="translate(0.000000, 2288.000000)">
                <g id="nudges" transform="translate(839.000000, 39.000000)" sketch:type="MSShapeGroup">
                    <g id="Group-6" transform="translate(0.801502, 0.999306)">
                        <g id="great" transform="translate(24.000000, 74.000000)">
                            <path d="M20.2326634,23.65776 C19.2050732,24.26984 18.2074732,24.93848 17.1442341,25.48224 C14.9379707,26.61008 12.6672,27.61752 10.1270829,27.67632 C7.49133659,27.73736 6.14743415,25.53936 7.3164878,23.19296 C8.28183415,21.25536 9.85377561,19.80272 11.3057561,18.25432 C13.475239,15.93984 15.8365463,13.83088 18.4106146,11.96664 C19.9231415,10.87128 21.4322732,9.75408 23.045522,8.82112 C24.2213659,8.14128 25.5533854,7.67704 26.9906537,8.0444 C27.6130927,8.20288 27.8032195,8.62792 27.6957073,9.22544 C27.5995122,9.75968 27.5140683,10.2956 27.426361,10.82088 C28.2836293,11.5136 28.4839415,12.0848 28.0691707,13.05808 C27.2962146,14.87416 26.4587512,16.66336 25.667122,18.4716 C24.9660293,20.07264 24.2926634,21.686 23.6000585,23.2904 C23.4184195,23.71096 23.184722,24.1108 23.0177951,24.53584 C22.8146537,25.05272 22.6567805,25.58696 22.4242146,26.27576 C24.4165854,25.42624 26.2550439,24.7772 27.9593951,23.87896 C29.8889561,22.86144 31.7155317,21.64624 33.5545561,20.468 C35.0857561,19.48688 35.5022244,17.83432 35.9526439,16.23776 C36.4602146,14.43904 37.2727805,13.77824 39.1689561,13.7256 C39.8864585,13.706 40.441561,14.37296 40.441561,15.2684 C40.441561,17.30624 40.4257171,19.34464 40.4370341,21.38304 C40.4483512,23.3268 40.8257756,23.71432 42.7185561,23.21312 C44.493639,22.74328 46.1957268,21.9996 47.9215805,21.35392 C48.1173659,21.28 48.3838829,21.07392 48.4036878,20.9048 C48.5643902,19.51152 49.6214049,18.74208 50.4990439,17.84384 C51.4445854,16.8756 52.3154341,15.81944 53.3549073,14.9632 C53.9569756,14.4676 54.8006634,14.14224 55.5826732,14.00672 C56.5757463,13.8348 57.1817756,14.57848 56.959961,15.56464 C56.5287805,17.48544 55.6273756,19.15312 54.0503415,20.40808 C53.560878,20.79784 53.0363317,21.14672 52.5547902,21.54656 C52.428039,21.6524 52.2933659,21.95256 52.3510829,22.03544 C52.5530927,22.32664 52.807161,22.73656 53.0957463,22.78472 C53.8811512,22.91632 54.7276683,23.044 55.490439,22.88832 C57.2955122,22.51984 59.0688976,21.994 60.8485073,21.5096 C61.0527805,21.4536 61.309678,21.29848 61.3872,21.12208 C62.1437463,19.41464 63.5629073,18.4296 65.1552195,17.59408 C66.877678,16.69024 68.5418537,15.67048 70.296,14.8344 C70.872039,14.56056 71.6614049,14.6076 72.3342049,14.67872 C73.2044878,14.77056 73.5157073,15.58872 73.0715122,16.36824 C72.1842537,17.92448 72.5339512,19.1072 73.6933854,20.41984 C75.1827122,22.106 76.9312,21.97384 78.8551024,21.72912 C81.3618341,21.40992 83.6908878,20.63152 85.8864,19.41968 C86.4358439,19.11616 87.0650732,18.88992 87.4996488,18.46824 C87.8187902,18.15856 88.1271805,17.51008 88.0094829,17.15 C87.6835512,16.14872 88.086439,15.4084 88.7309463,14.84896 C89.8128585,13.90984 90.4652878,12.83632 90.8670439,11.44304 C91.3621659,9.7272 92.2697951,8.1312 92.8826146,6.44224 C93.0772683,5.90632 93.1389463,5.0708 92.8464,4.66592 C92.2675317,3.864 92.861678,3.84944 93.2996488,3.64616 C93.743278,3.44064 94.2197268,3.28832 94.6305366,3.0324 C95.5896585,2.4332 96.5533073,1.8592 97.7359415,1.87544 C98.642439,1.88776 99.1228488,2.47912 98.7505171,3.29784 C97.8994732,5.16656 96.9392195,6.98656 96.0259317,8.82784 C95.6253073,9.63704 95.232039,10.4496 94.8353756,11.26104 C94.8930927,11.3344 94.9508098,11.40776 95.0085268,11.48168 C95.5059122,11.31928 96.0349854,11.21848 96.4950244,10.9844 C99.6258927,9.39344 102.759024,7.8064 105.857639,6.15496 C108.495649,4.7488 110.702478,2.772 112.849893,0.73416 C113.747902,-0.1176 115.094634,-0.01456 115.649737,1.06792 C115.811005,1.38152 115.71198,2.00816 115.484507,2.30664 C113.746205,4.59144 112.565834,7.1652 111.440351,9.7664 C110.545171,11.83336 109.762595,13.94904 108.834595,16.00088 C108.366634,17.0352 107.679688,17.97152 107.103083,18.9588 C106.615317,19.79264 106.19998,20.67576 105.63639,21.45416 C105.419102,21.75544 104.881541,21.8288 104.489405,22.00632 C104.392078,21.59976 104.11481,21.13664 104.225151,20.79672 C105.080156,18.16024 105.979298,15.5372 106.926537,12.93208 C107.693834,10.82088 108.54601,8.73992 109.421951,6.48816 C109.103941,6.57776 108.911551,6.59008 108.769522,6.67968 C108.259122,7.00112 107.785502,7.3836 107.260956,7.6804 C104.906439,9.01208 102.555317,10.3516 100.17081,11.6312 C97.884761,12.85816 95.5477854,13.99328 93.2617366,15.22024 C92.7824585,15.47728 92.2635707,15.88328 92.0400585,16.35088 C90.657678,19.2416 89.2662439,22.13456 88.0604098,25.09976 C87.4300488,26.64872 88.1198244,27.20536 89.826439,27.26472 C92.8984585,27.37224 95.5941854,26.26008 98.2808585,25.032 C98.4194927,24.96872 98.5739707,24.94072 98.828039,25.06504 C98.2157854,25.48504 97.6040976,25.90448 96.9918439,26.32392 C97.0257951,26.40568 97.0591805,26.48744 97.0925659,26.5692 C97.4632,26.53336 97.8853268,26.59776 98.1931512,26.44152 C98.8987707,26.08256 99.5387512,25.59984 100.227395,25.20448 C100.41922,25.09416 100.83682,25.0124 100.890576,25.09136 C101.04562,25.31872 101.221034,25.72864 101.114654,25.89944 C100.757034,26.474 100.388098,27.18968 99.8284683,27.4652 C98.0528195,28.33992 96.2098341,29.09648 94.3527024,29.79368 C92.3790049,30.534 90.290439,30.57488 88.291278,30.04456 C87.5109659,29.83792 86.8749463,28.9688 86.2643902,28.31808 C85.917522,27.94848 85.7449366,27.55088 85.093639,27.5072 C84.2375024,27.45008 84.0586927,26.67392 84.4434732,25.91512 C85.1185366,24.58288 85.669678,23.1896 86.272878,21.82152 C86.2044098,21.73976 86.1359415,21.658 86.0674732,21.57624 C85.2351024,21.90944 84.4157463,22.2824 83.5669659,22.568 C82.0153951,23.08936 80.4479805,23.56704 78.8816976,24.04472 C78.3599805,24.20376 77.8122341,24.27824 77.2910829,24.43896 C75.5714537,24.9704 73.9474537,24.65344 72.3047805,24.05312 C71.7966439,23.8672 71.1244098,23.94112 70.5744,24.07944 C68.4818732,24.60304 66.4821463,25.4968 64.2317463,25.32544 C63.3654244,25.25992 62.624722,25.08856 62.0724488,24.42832 C61.5450732,23.7972 61.0425951,23.92768 60.3183024,24.15952 C57.8602341,24.9452 55.4649756,26.04056 52.7935805,25.97056 C51.4049756,25.93416 50.1589659,25.55392 49.2626537,24.4356 C48.7545171,23.80168 48.2395902,23.79664 47.5147317,24.10464 C45.7413463,24.85728 43.9543805,25.59816 42.1221463,26.19008 C39.965678,26.88672 38.2703805,26.28584 37.4278244,24.56104 C37.116039,23.92208 37.1256585,23.12184 37.0305951,22.38992 C36.9808,22.00184 37.0215415,21.60256 37.0215415,21.04256 C36.6107317,21.21616 36.3266732,21.27552 36.118439,21.43344 C33.1805268,23.66168 29.8482146,25.2056 26.5572098,26.8128 C25.0039415,27.5716 23.4031415,28.238 21.8142244,28.92288 C20.5772683,29.456 20.4425951,30.70592 19.9604878,31.70552 C18.1367415,35.49112 16.4459707,39.34056 14.5492293,43.0892 C13.5210732,45.12032 12.3197659,47.10104 10.9419122,48.91544 C9.08534634,51.36096 6.97697561,53.61888 4.42667317,55.4092 C3.74199024,55.88968 2.76476098,55.68136 2.17514146,55.00768 C0.843687805,53.48616 0.424390244,51.60064 0.237658537,49.71568 C0.0260292683,47.5776 0.168058537,45.40088 1.07285854,43.39048 C2.58764878,40.02376 4.68922927,37.08096 7.70579512,34.84656 C9.36997073,33.61344 11.0154732,32.35456 12.7147317,31.17072 C13.4412878,30.66392 14.2787512,30.31056 15.0737756,29.90232 C16.1183415,29.36528 17.175922,28.85232 18.215961,28.30688 C18.4355122,28.19096 18.6918439,28.01736 18.7823805,27.80736 C19.3499317,26.50032 19.874478,25.17536 20.4131707,23.85656 C20.3531902,23.79048 20.2932098,23.72384 20.2326634,23.65776 L20.2326634,23.65776 Z M17.276078,31.49664 C16.9246829,31.49664 16.858478,31.47704 16.8149073,31.49944 C13.788722,33.06128 10.8145951,34.73176 8.44649756,37.20136 C7.10938537,38.5952 5.78868293,40.0988 4.87539512,41.77488 C3.32721951,44.61688 3.07201951,47.69688 4.11601951,50.83512 C4.51098537,52.02456 5.00554146,52.23512 5.92505366,51.34696 C6.64595122,50.65088 7.31252683,49.88648 7.92138537,49.09128 C9.05196098,47.614 10.2266732,46.15464 11.190322,44.5732 C12.3327805,42.69776 13.3134049,40.72152 14.2844098,38.75088 C15.0664195,37.16496 15.7505366,35.52976 16.4386146,33.90072 C16.754361,33.1548 16.9756098,32.36968 17.276078,31.49664 L17.276078,31.49664 Z M23.8445073,11.2196 C23.2135805,11.46544 22.7586341,11.55784 22.4027122,11.79528 C20.8805659,12.80832 19.3001366,13.762 17.9058732,14.9296 C16.0142244,16.51384 14.217639,18.22072 12.4917854,19.98136 C11.6809171,20.80904 11.0092488,21.826 10.4909268,22.86368 C9.85490732,24.13656 10.3834146,24.86512 11.7691902,24.8696 C12.1692488,24.87072 12.5981659,24.84216 12.964839,24.7016 C14.0642927,24.27936 15.1541268,23.82632 16.2213268,23.33016 C18.4004293,22.31768 20.2219122,20.82192 21.7508488,19.00864 C22.3466927,18.30248 22.732039,17.41432 23.1547317,16.57992 C23.242439,16.40576 23.1507707,15.97288 23.0013854,15.87992 C22.4038439,15.50808 22.6330146,15.09032 22.7914537,14.61544 C23.1377561,13.57664 23.4433171,12.52496 23.8445073,11.2196 L23.8445073,11.2196 Z M65.373639,22.31544 C67.832839,22.43248 69.7250537,21.42504 71.4792,20.06816 C70.431239,18.74432 70.4306732,18.7432 68.9520976,19.78368 C68.6697366,19.98304 68.4139707,20.22608 68.1140683,20.39296 C67.7937951,20.57104 67.4407024,20.78888 67.0938341,20.804 C66.1516878,20.84656 65.7318244,21.40712 65.373639,22.31544 L65.373639,22.31544 Z M96.6195122,26.87272 C96.5827317,26.75792 96.5453854,26.64256 96.508039,26.52776 C95.8691902,26.76352 95.2297756,26.99872 94.590361,27.23448 C94.6231805,27.32464 94.656,27.41536 94.6888195,27.50552 C95.3321951,27.2944 95.9761366,27.08328 96.6195122,26.87272 L96.6195122,26.87272 Z" id="Fill-1"></path>
                            <path d="M105.644878,31.28552 C106.84279,31.41992 107.399024,31.9704 107.36281,33.06072 C107.305659,34.75528 105.613756,36.03152 104.206478,35.4564 C103.296585,35.084 103.319785,34.20424 103.222459,33.49304 C103.169268,33.10664 103.541034,32.5388 103.889034,32.25264 C104.394907,31.83544 105.052429,31.59912 105.644878,31.28552" id="Fill-2"></path>
                        </g>
                    </g>
                </g>
            </g>
        </g>
    </g>
</svg>