<?xml version="1.0" encoding="UTF-8" standalone="no"?>
<svg width="48px" height="72px" viewBox="0 0 48 72" version="1.1" xmlns="http://www.w3.org/2000/svg" xmlns:xlink="http://www.w3.org/1999/xlink" xmlns:sketch="http://www.bohemiancoding.com/sketch/ns">
    <!-- Generator: Sketch 3.2.2 (9983) - http://www.bohemiancoding.com/sketch -->
    <title>Fill 1</title>
    <desc>Created with Sketch.</desc>
    <defs></defs>
    <g id="Page-1" stroke="none" stroke-width="1" fill="none" fill-rule="evenodd" sketch:type="MSPage">
        <g id="who-we-are" sketch:type="MSArtboardGroup" transform="translate(-987.000000, -2036.000000)" fill="#FFFFFF">
            <path d="M1010.97878,2089.99531 C1008.17494,2089.99531 1005.37109,2089.9966 1002.56725,2089.99531 C1000.46472,2089.99531 999.013523,2088.71216 998.9821,2086.80802 C998.953533,2085.1353 998.690717,2083.4973 998.145089,2081.89529 C997.330932,2079.50643 995.904014,2077.40814 994.34426,2075.37285 C992.558827,2073.04184 990.701977,2070.75198 989.390755,2068.15612 C987.466773,2064.34525 986.76117,2060.33896 987.069692,2056.18866 C987.522478,2050.0995 990.377742,2045.06078 995.512647,2041.10077 C999.35347,2038.13719 1003.83848,2036.45804 1008.88768,2036.0839 C1015.7566,2035.57604 1021.81707,2037.37347 1026.96626,2041.4852 C1031.42127,2045.04278 1034.07228,2049.52607 1034.78074,2054.86051 C1035.60918,2061.08853 1034.09371,2066.83954 1030.17147,2072.05184 C1028.84025,2073.82227 1027.48189,2075.57728 1026.20209,2077.37728 C1024.14242,2080.27143 1023.03116,2083.43172 1023.00403,2086.89545 C1022.98974,2088.73274 1021.49141,2089.99531 1019.45173,2089.99531 C1016.62789,2089.9966 1013.80262,2089.99531 1010.97878,2089.99531 Z M1010.93593,2101.52048 C1008.21207,2101.52048 1005.48965,2101.52562 1002.76722,2101.51791 C1001.62026,2101.51534 1000.77325,2100.90205 1000.62898,2100.00205 C1000.45044,2098.88476 1001.32887,2097.92047 1002.61438,2097.9179 C1008.20207,2097.90247 1013.79119,2097.90376 1019.37888,2097.91661 C1020.54584,2097.91919 1021.39571,2098.72405 1021.38571,2099.7269 C1021.37428,2100.73234 1020.52156,2101.50762 1019.34746,2101.51405 C1016.54362,2101.53077 1013.73977,2101.52048 1010.93593,2101.52048 Z M1010.99592,2092.16689 C1013.79976,2092.16689 1016.60361,2092.15917 1019.40745,2092.17074 C1020.41301,2092.1746 1021.23145,2092.82389 1021.36428,2093.66603 C1021.50712,2094.57375 1020.93435,2095.42104 1019.97593,2095.66275 C1019.66741,2095.7399 1019.33318,2095.7579 1019.0118,2095.7579 C1013.64836,2095.76304 1008.28492,2095.76047 1002.92148,2095.76304 C1002.27158,2095.76304 1001.65739,2095.66532 1001.19032,2095.22432 C1000.60756,2094.67146 1000.4333,2094.01446 1000.75039,2093.30218 C1001.07463,2092.57189 1001.69881,2092.17203 1002.58582,2092.16946 C1005.38966,2092.16303 1008.1935,2092.16689 1010.99592,2092.16689 Z M1003.04003,2103.71777 L1018.93324,2103.71777 C1018.36761,2105.71835 1014.53536,2107.89378 1011.40728,2107.99535 C1007.89641,2108.10978 1003.9356,2106.09506 1003.04003,2103.71777 Z" id="Fill-1" sketch:type="MSShapeGroup"></path>
        </g>
    </g>
</svg>