<?xml version="1.0" encoding="UTF-8" standalone="no"?>
<svg width="57px" height="56px" viewBox="0 0 57 56" version="1.1" xmlns="http://www.w3.org/2000/svg" xmlns:xlink="http://www.w3.org/1999/xlink" xmlns:sketch="http://www.bohemiancoding.com/sketch/ns">
    <!-- Generator: Sketch 3.2.2 (9983) - http://www.bohemiancoding.com/sketch -->
    <title>Imported Layers</title>
    <desc>Created with Sketch.</desc>
    <defs></defs>
    <g id="Page-1" stroke="none" stroke-width="1" fill="none" fill-rule="evenodd" sketch:type="MSPage">
        <path d="M28.5796903,56.0001386 C13.1406903,55.9481386 0.547690255,43.3491386 0.622690255,28.0291386 C0.698690255,12.3801386 13.2156903,-0.0478614281 28.8506903,0.000138571887 C44.1606903,0.0481385719 56.6826903,12.7241386 56.6226903,28.1121386 C56.5616903,43.5211386 43.9616903,56.0511386 28.5796903,56.0001386 L28.5796903,56.0001386 Z M28.6556903,14.0151386 C20.9626903,14.0141386 14.6906903,20.2411386 14.6236903,27.8251386 C14.5556903,35.5231386 20.7456903,41.8731386 28.3986903,41.9901386 C36.2556903,42.1111386 42.6046903,35.7241386 42.6066903,28.0821386 C42.6096903,20.2891386 36.3866903,14.0151386 28.6556903,14.0151386 L28.6556903,14.0151386 Z M52.9486903,18.4481386 C49.6366903,19.4991386 46.3846903,20.5301386 43.1256903,21.5641386 C44.9926903,26.0061386 44.9326903,30.3701386 42.9846903,34.7371386 C46.2896903,35.7841386 49.5416903,36.8151386 52.8276903,37.8561386 C55.3436903,31.3841386 55.3836903,24.9681386 52.9486903,18.4481386 L52.9486903,18.4481386 Z M34.8516903,13.3941386 C34.9006903,13.2651386 34.9496903,13.1501386 34.9876903,13.0321386 C35.9326903,10.0561386 36.8696903,7.07713857 37.8296903,4.10613857 C37.9536903,3.72413857 37.9066903,3.57013857 37.5086903,3.42813857 C33.0026903,1.81913857 28.3996903,1.46413857 23.7026903,2.34213857 C21.9646903,2.66613857 20.2726903,3.15813857 18.5986903,3.89013857 C19.6396903,7.17213857 20.6746903,10.4351386 21.7166903,13.7201386 C26.0906903,11.7141386 30.4416903,11.6161386 34.8516903,13.3941386 L34.8516903,13.3941386 Z M34.6756903,42.6741386 C30.3566903,44.3631386 26.1216903,44.2521386 21.9246903,42.3801386 C21.8676903,42.5331386 21.8246903,42.6331386 21.7916903,42.7371386 C20.8386903,45.7451386 19.8936903,48.7561386 18.9256903,51.7591386 C18.8096903,52.1171386 18.8766903,52.2451386 19.2206903,52.3761386 C24.1546903,54.2521386 29.2006903,54.6201386 34.3496903,53.4841386 C35.4966903,53.2311386 36.6156903,52.8521386 37.7976903,52.5171386 C36.7376903,49.1741386 35.7096903,45.9341386 34.6756903,42.6741386 L34.6756903,42.6741386 Z M4.33569026,37.6431386 C7.64869026,36.5921386 10.8896903,35.5641386 14.1606903,34.5261386 C12.3306903,30.2711386 12.2926903,26.0361386 14.0136903,21.7691386 C10.7316903,20.7291386 7.49069026,19.7021386 4.21169026,18.6621386 C1.89069026,25.0291386 1.92569026,31.3091386 4.33569026,37.6431386 L4.33569026,37.6431386 Z" id="Imported-Layers" fill="#FFFFFF" sketch:type="MSShapeGroup"></path>
    </g>
</svg>