<?xml version="1.0" encoding="UTF-8" standalone="no"?>
<svg width="76px" height="48px" viewBox="0 0 76 48" version="1.1" xmlns="http://www.w3.org/2000/svg" xmlns:xlink="http://www.w3.org/1999/xlink" xmlns:sketch="http://www.bohemiancoding.com/sketch/ns">
    <!-- Generator: Sketch 3.2.2 (9983) - http://www.bohemiancoding.com/sketch -->
    <title>Imported Layers 2</title>
    <desc>Created with Sketch.</desc>
    <defs></defs>
    <g id="Page-1" stroke="none" stroke-width="1" fill="none" fill-rule="evenodd" sketch:type="MSPage">
        <g id="Imported-Layers-2" sketch:type="MSLayerGroup" transform="translate(0.622357, 0.000000)" fill="#FFFFFF">
            <path d="M27.8258701,29.8324898 C26.8655065,26.2011429 24.9003636,24.9893878 21.3816623,25.104 C21.206961,24.6465306 21.0480519,24.1635918 20.8407792,23.7012245 C20.0995325,22.0476735 18.9003117,20.9299592 17.0506494,20.6684082 C15.8139221,20.4940408 14.7272208,20.6566531 13.7698182,21.6881633 C12.1678961,23.4132245 10.412987,24.9962449 8.71236364,26.6478367 C7.34436364,25.3635918 6.09776623,24.0411429 4.69028571,22.9165714 C3.31044156,21.813551 1.76774026,20.9133061 0.133246753,19.8151837 C0.314857143,19.3263673 0.545818182,18.5867755 0.860675325,17.8834286 C3.05381818,12.9737143 5.26867532,8.07281633 7.46774026,3.16604082 C8.25537662,1.40963265 9.53158442,0.912 11.1591688,1.95134694 C13.6434805,3.53730612 16.3745455,4.14955102 19.228,3.92620408 C20.9809351,3.78906122 22.6953766,3.15036735 24.4226494,2.72228571 C27.4863377,1.96310204 30.553974,1.23722449 33.744987,1.32146939 C34.7527273,1.34791837 35.7357922,1.45665306 36.6537143,2.16489796 C35.1396364,3.58726531 33.668,4.96946939 32.1973506,6.35265306 C29.9252468,8.49012245 27.6590649,10.6334694 25.3800519,12.763102 C24.1225974,13.9376327 23.786026,16.0417959 24.6644675,17.5444898 C27.0066494,21.5500408 31.0316883,22.3425306 34.9451948,20.4362449 C38.0947532,18.9022041 40.7794286,16.6462041 43.3723117,14.3069388 C43.5746494,14.1247347 43.776987,13.9444898 44.0730909,13.68 C45.9227532,15.1376327 47.7891948,16.5658776 49.6082597,18.0519184 C52.9650909,20.7928163 56.2765195,23.5875918 59.1141818,26.8839184 C60.4002597,28.3787755 61.4612987,29.9422041 61.1454545,32.1022041 C60.7911169,34.5276735 59.3194805,35.8011429 56.8410909,35.6316735 C56.2982338,35.594449 55.7583377,35.5072653 55.1384935,35.4328163 C54.794026,37.0765714 54.2403117,38.5890612 52.5959481,39.3766531 C51.0463377,40.1201633 49.4671169,39.8703673 47.8928312,39.4951837 C46.5919481,43.5193469 46.0145455,43.92 41.8256623,43.6927347 C41.0153247,45.3746939 40.1497143,47.0537143 38.0582338,47.5082449 C36.9962078,47.738449 36.0447273,47.4435918 34.7507532,46.7500408 C36.7514286,44.8741224 38.5951688,43.1275102 40.4645714,41.4093061 C40.9028052,41.0057143 41.1347532,40.5805714 41.0469091,39.988898 C40.9314286,39.216 40.9097143,38.4166531 40.6984935,37.6711837 C40.0075844,35.2290612 38.2131948,33.9918367 35.6745974,34.1211429 C35.4021818,34.1358367 35.1307532,34.1583673 34.7497662,34.1838367 C33.8841558,30.5632653 31.5182857,29.1644082 27.8258701,29.8324898" id="Fill-1" sketch:type="MSShapeGroup"></path>
            <path d="M42.8146494,0.569142857 C45.2397403,0.632816327 46.9492468,1.40473469 48.7120519,2.05910204 C52.4212468,3.43346939 56.2113766,4.66873469 60.2225974,3.67346939 C61.865974,3.26595918 63.4254545,2.45093878 64.9523636,1.68097959 C65.9847792,1.15885714 66.8247273,1.24702041 67.336,2.3157551 C69.8854545,7.6555102 72.4191169,13.0021224 74.9409351,18.3546122 C75.3771948,19.2813061 75.1018182,19.9973878 74.2687792,20.6439184 C71.9542338,22.4414694 69.6564675,24.2595918 67.3587013,26.0767347 C66.7882078,26.5263673 66.2443636,27.0093061 65.6817662,27.4697143 C64.4963636,28.437551 63.6070649,28.3562449 62.550961,27.2287347 C60.648,25.1960816 58.7825455,23.1242449 56.8085195,21.163102 C53.3253506,17.7002449 49.6635325,14.4450612 45.372,11.9676735 C44.6070649,11.5258776 44.1155325,11.4710204 43.3446753,12.1165714 C40.9797922,14.0963265 38.5162078,15.9634286 36.0427532,17.8089796 C34.3845714,19.0462041 32.4845714,19.5487347 30.397039,19.3420408 C28.5996883,19.1647347 26.6957403,17.3916735 26.5032727,15.6117551 C26.4262857,14.9035102 26.5200519,14.2599184 27.1704935,13.7583673 C31.8578182,10.1466122 36.2056104,6.1557551 40.2602597,1.85338776 C41.1288312,0.930612245 42.0911688,0.515265306 42.8146494,0.569142857" id="Fill-2" sketch:type="MSShapeGroup"></path>
            <path d="M31.1047273,47.4876735 C29.6854026,47.2976327 28.7003636,46.6795102 28.120987,45.4942041 C27.5504935,44.3275102 27.6432727,43.1294694 28.5207273,42.1900408 C30.3585455,40.2230204 32.2516364,38.304 34.201974,36.4486531 C35.3330909,35.3720816 37.2232208,35.5092245 38.3464416,36.5769796 C39.5723117,37.7426939 39.8012987,39.6137143 38.684,40.8284082 C36.861974,42.8081633 34.958026,44.7183673 33.0116364,46.5776327 C32.528987,47.0390204 31.7482597,47.1928163 31.1047273,47.4876735" id="Fill-3" sketch:type="MSShapeGroup"></path>
            <path d="M19.7846753,25.9474286 C19.5359481,26.3892245 19.228,27.2659592 18.6496104,27.8968163 C17.0348571,29.6551837 15.3223896,31.3263673 13.6207792,33.0053878 C12.3603636,34.2484898 10.4554286,34.2651429 9.19205195,33.0925714 C7.88820779,31.8837551 7.76483117,29.9686531 9.02031169,28.6305306 C10.7377143,26.8006531 12.5153247,25.0256327 14.3028052,23.2643265 C15.2799481,22.3023673 16.489039,22.0917551 17.7484675,22.608 C19.0108571,23.1262041 19.6445195,24.144 19.7846753,25.9474286" id="Fill-4" sketch:type="MSShapeGroup"></path>
            <path d="M24.6555844,42.9658776 C23.2708052,42.7748571 22.3232727,42.1498776 21.735013,41.0174694 C21.1339221,39.8595918 21.2118961,38.6527347 22.0794805,37.7152653 C23.9271688,35.7188571 25.8350649,33.7714286 27.816987,31.9092245 C28.9935065,30.8042449 30.8895584,31.0040816 32.0246234,32.1462857 C33.1675844,33.2963265 33.3482078,35.162449 32.2536104,36.340898 C30.4227013,38.3118367 28.5197403,40.2200816 26.5684156,42.0734694 C26.0847792,42.5319184 25.3010909,42.676898 24.6555844,42.9658776" id="Fill-5" sketch:type="MSShapeGroup"></path>
            <path d="M22.5335065,27.0445714 C24.2361039,27.1072653 25.2043636,27.6852245 25.7886753,28.8391837 C26.374961,30.0009796 26.3305455,31.204898 25.460987,32.1423673 C23.5915844,34.1593469 21.662961,36.1283265 19.6534026,38.0052245 C18.4926753,39.0906122 16.5739221,38.8339592 15.4585974,37.6623673 C14.3442597,36.4907755 14.2248312,34.6462041 15.3312727,33.4589388 C17.1049351,31.557551 18.9289351,29.6982857 20.8161039,27.9105306 C21.3451429,27.4089796 22.1712727,27.2189388 22.5335065,27.0445714" id="Fill-6" sketch:type="MSShapeGroup"></path>
        </g>
    </g>
</svg>