<?xml version="1.0" encoding="UTF-8" standalone="no"?>
<svg width="20px" height="21px" viewBox="0 0 20 21" version="1.1" xmlns="http://www.w3.org/2000/svg" xmlns:xlink="http://www.w3.org/1999/xlink" xmlns:sketch="http://www.bohemiancoding.com/sketch/ns">
    <!-- Generator: Sketch 3.2.2 (9983) - http://www.bohemiancoding.com/sketch -->
    <title>Fill 1</title>
    <desc>Created with Sketch.</desc>
    <defs></defs>
    <g id="Page-1" stroke="none" stroke-width="1" fill="none" fill-rule="evenodd" sketch:type="MSPage">
        <g id="who-we-are" sketch:type="MSArtboardGroup" transform="translate(-180.000000, -3591.000000)" fill="#3498DB">
            <g id="Group" sketch:type="MSLayerGroup" transform="translate(140.000000, 3042.000000)">
                <g id="Fill-1-+-View-profile-2" transform="translate(40.000000, 547.000000)" sketch:type="MSShapeGroup">
                    <path d="M18.5231111,2 L1.478,2 C0.662,2 0,2.6734 0,3.5043 L0,21.4947667 C0,22.3256667 0.662,23 1.478,23 L18.5231111,23 C19.3395556,23 20,22.3256667 20,21.4947667 L20,3.5043 C20,2.6734 19.3395556,2 18.5231111,2 L18.5231111,2 Z M3.04177778,10.0969 L6.06355556,10.0969 L6.06355556,19.5781667 L3.04177778,19.5781667 L3.04177778,10.0969 Z M4.55311111,8.8019 L4.53266667,8.8019 C3.51955556,8.8019 2.86244444,8.07413333 2.86244444,7.16296667 C2.86244444,6.2336 3.53866667,5.5259 4.57222222,5.5259 C5.606,5.5259 6.24133333,6.2336 6.26133333,7.16296667 C6.26133333,8.07413333 5.606,8.8019 4.55311111,8.8019 L4.55311111,8.8019 Z M16.9566667,19.5781667 L13.9357778,19.5781667 L13.9357778,14.5055 C13.9357778,13.2305667 13.498,12.3611667 12.4055556,12.3611667 C11.57,12.3611667 11.0737778,12.9477667 10.856,13.5143 C10.7753333,13.7168333 10.7553333,13.9996333 10.7553333,14.2824333 L10.7553333,19.5781667 L7.73488889,19.5781667 C7.73488889,19.5781667 7.77444444,10.9863667 7.73488889,10.0969 L10.7553333,10.0969 L10.7553333,11.4411333 C11.1562222,10.7952667 11.8728889,9.87383333 13.4775556,9.87383333 C15.4657778,9.87383333 16.9566667,11.2283333 16.9566667,14.1417333 L16.9566667,19.5781667 L16.9566667,19.5781667 Z M10.7357778,11.471 C10.7413333,11.4621333 10.7484444,11.4514 10.7553333,11.4411333 L10.7553333,11.471 L10.7357778,11.471 L10.7357778,11.471 Z" id="Fill-1"></path>
                </g>
            </g>
        </g>
    </g>
</svg>