<?xml version="1.0" encoding="UTF-8" standalone="no"?>
<svg width="47px" height="56px" viewBox="0 0 47 56" version="1.1" xmlns="http://www.w3.org/2000/svg" xmlns:xlink="http://www.w3.org/1999/xlink" xmlns:sketch="http://www.bohemiancoding.com/sketch/ns">
    <!-- Generator: Sketch 3.2.2 (9983) - http://www.bohemiancoding.com/sketch -->
    <title>Fill 7</title>
    <desc>Created with Sketch.</desc>
    <defs></defs>
    <g id="Page-1" stroke="none" stroke-width="1" fill="none" fill-rule="evenodd" sketch:type="MSPage">
        <path d="M22.6237934,10.4609184 C20.9947934,10.0439184 19.7437934,9.15691844 18.9597934,7.67591844 C18.3827934,6.58491844 18.2207934,5.41391844 18.4717934,4.21091844 C19.0027934,1.66691844 21.2137934,-0.0630815641 23.8007934,0.00191843592 C26.2447934,0.0639184359 28.4197934,1.98891844 28.7997934,4.38191844 C29.1537934,6.61891844 28.0847934,9.53791844 24.6177934,10.4709184 C31.4247934,10.9439184 37.0857934,13.7109184 41.3587934,19.0469184 C45.6437934,24.3969184 47.1747934,30.5469184 45.9907934,37.2759184 C44.0377934,48.3719184 34.2077934,56.3229184 22.9867934,55.9899184 C11.5947934,55.6529184 2.59079335,47.1419184 1.11479335,36.5219184 C0.194793354,29.8989184 1.83279335,23.9149184 6.10479335,18.7559184 C10.3717934,13.6029184 15.9477934,10.9269184 22.6237934,10.4609184 L22.6237934,10.4609184 Z M4.38279335,33.1809184 C4.32379335,43.7689184 12.9087934,52.4249184 23.5367934,52.4799184 C34.0717934,52.5359184 42.5777934,44.0629184 42.8477934,33.7779184 C43.1287934,23.0609184 34.6167934,14.1649184 23.9617934,14.0199184 C13.1267934,13.8719184 4.44179335,22.4309184 4.38279335,33.1809184 L4.38279335,33.1809184 Z M23.6367934,3.51691844 C22.6677934,3.51491844 21.8837934,4.27691844 21.8707934,5.23291844 C21.8577934,6.19791844 22.6617934,6.99591844 23.6457934,6.99391844 C24.5647934,6.99191844 25.3457934,6.20591844 25.3567934,5.27291844 C25.3687934,4.31491844 24.5877934,3.51791844 23.6367934,3.51691844 Z M12.4857934,44.3609184 C13.1527934,42.6299184 13.7777934,41.0059184 14.4027934,39.3819184 C15.7757934,35.8119184 17.1437934,32.2399184 18.5327934,28.6759184 C18.6137934,28.4679184 18.8327934,28.2479184 19.0407934,28.1669184 C24.1387934,26.1869184 29.2447934,24.2259184 34.3487934,22.2619184 C34.4397934,22.2269184 34.5337934,22.1999184 34.7077934,22.1429184 C34.6477934,22.3389184 34.6137934,22.4839184 34.5607934,22.6219184 C32.6147934,27.6809184 30.6697934,32.7399184 28.7087934,37.7929184 C28.6267934,38.0039184 28.4227934,38.2419184 28.2187934,38.3209184 C23.1207934,40.3009184 18.0157934,42.2609184 12.9107934,44.2239184 C12.8087934,44.2629184 12.7017934,44.2919184 12.4857934,44.3609184 Z M23.6167934,36.7229184 C25.5427934,36.7229184 27.1097934,35.1719184 27.1187934,33.2569184 C27.1277934,31.3519184 25.5457934,29.7649184 23.6357934,29.7629184 C21.6847934,29.7609184 20.1067934,31.3269184 20.1117934,33.2619184 C20.1167934,35.1799184 21.6787934,36.7219184 23.6167934,36.7229184 L23.6167934,36.7229184 Z" id="Fill-7" fill="#FFFFFF" sketch:type="MSShapeGroup"></path>
    </g>
</svg>