<?xml version="1.0" encoding="UTF-8" standalone="no"?>
<svg width="84px" height="36px" viewBox="0 0 84 36" version="1.1" xmlns="http://www.w3.org/2000/svg" xmlns:xlink="http://www.w3.org/1999/xlink" xmlns:sketch="http://www.bohemiancoding.com/sketch/ns">
    <!-- Generator: Sketch 3.2.2 (9983) - http://www.bohemiancoding.com/sketch -->
    <title>logo 3</title>
    <desc>Created with Sketch.</desc>
    <defs></defs>
    <g id="Page-1" stroke="none" stroke-width="1" fill="none" fill-rule="evenodd" sketch:type="MSPage">
        <g id="who-we-are" sketch:type="MSArtboardGroup" transform="translate(-678.000000, -18.000000)">
            <g id="logo-3" sketch:type="MSLayerGroup" transform="translate(678.000000, 18.000000)">
                <g id="letters" sketch:type="MSShapeGroup">
                    <path d="M19.5898367,14.8307692 C19.5898367,20.2615385 15.168784,24.6769231 9.78729583,24.6769231 C4.42105263,24.6769231 0,20.2615385 0,14.8307692 C0,9.36923077 4.42105263,4.93846154 9.80254083,4.93846154 C11.814882,4.93846154 13.6747731,5.55384615 15.2602541,6.6 L15.2602541,2.35384615 C15.2602541,0.8 16.3426497,0 17.4098004,0 C18.492196,0 19.6050817,0.8 19.6050817,2.35384615 L19.6050817,14.8307692 L19.5898367,14.8307692 Z M9.80254083,9.29230769 C6.78402904,9.29230769 4.31433757,11.7846154 4.31433757,14.8307692 C4.31433757,17.8307692 6.78402904,20.3384615 9.80254083,20.3384615 C12.8210526,20.3384615 15.2602541,17.8461538 15.2602541,14.8307692 C15.2602541,11.7846154 12.7753176,9.29230769 9.80254083,9.29230769 L9.80254083,9.29230769 Z" id="Shape" fill="#000000"></path>
                    <path d="M42.1829401,22.3384615 C42.1829401,23.8923077 41.0700544,24.6615385 39.9876588,24.6615385 C39.0577132,24.6615385 38.1277677,24.0769231 37.8990926,22.9230769 C36.3136116,24.0461538 34.4232305,24.6615385 32.3651543,24.6615385 C26.9836661,24.6615385 22.5626134,20.2461538 22.5626134,14.8153846 C22.5626134,9.35384615 26.9836661,4.92307692 32.3651543,4.92307692 C37.7466425,4.92307692 42.1676951,9.33846154 42.1676951,14.8153846 L42.1676951,22.3384615 L42.1829401,22.3384615 Z M32.3803993,9.27692308 C29.3618875,9.27692308 26.892196,11.7692308 26.892196,14.8153846 C26.892196,17.8153846 29.3618875,20.3230769 32.3803993,20.3230769 C35.353176,20.3230769 37.8381125,17.8307692 37.8381125,14.8153846 C37.8381125,11.7692308 35.3989111,9.27692308 32.3803993,9.27692308 L32.3803993,9.27692308 Z" id="Shape" fill="#000000"></path>
                    <path d="M77.7800363,5.38461538 C76.5909256,5.38461538 75.615245,6.35384615 75.615245,7.56923077 L75.615245,15.1076923 C75.523775,18.0307692 73.3742287,20.4307692 70.6606171,20.4307692 C67.8555354,20.4307692 65.7212341,17.9384615 65.7212341,14.9230769 L65.7212341,7.73846154 C65.7212341,6.18461538 64.5778584,5.38461538 63.5869328,5.38461538 C62.5960073,5.38461538 61.4373866,6.18461538 61.4373866,7.73846154 L61.4373866,14.9230769 C61.4373866,20.3538462 65.4010889,24.7692308 70.6606171,24.7692308 C72.5509982,24.7692308 74.1517241,24.2 75.615245,23.0769231 L75.615245,23.0307692 C75.615245,23.9384615 76.5756806,24.8 77.7800363,24.8 C78.969147,24.8 79.9448276,23.8307692 79.9448276,22.6153846 L79.9448276,7.55384615 C79.9448276,6.35384615 78.969147,5.38461538 77.7800363,5.38461538 L77.7800363,5.38461538 Z" id="Shape" fill="#000000"></path>
                    <path d="M51.9158038,2.28353089 C51.9462938,1.65276166 51.7023736,1.00660781 51.1840433,0.545069353 C50.2845878,-0.254930647 48.927782,-0.162622954 48.1350415,0.745069353 L43.8359489,5.69891551 C43.0432085,6.60660781 43.1346785,7.97583858 44.0341341,8.77583858 C44.4152593,9.11430012 44.9335896,9.31430012 45.4061849,9.32968474 L46.1074553,9.32968474 L47.6167112,9.32968474 L47.6167112,15.9912232 C47.6167112,18.3758386 48.5923918,20.560454 50.1626277,22.1450694 C51.7023736,23.6989155 53.8519199,24.6835309 56.2301413,24.6835309 C57.7698872,24.6835309 58.5321377,23.5912232 58.5321377,22.5143001 C58.5321377,21.4219924 57.7851322,20.3450694 56.2301413,20.3450694 C55.0410306,20.3450694 53.97388,19.837377 53.2116295,19.0835309 C52.4188891,18.2835309 51.9158038,17.2066078 51.9158038,16.0066078 L51.9158038,9.32968474 L56.7637166,9.32968474 C57.6631722,9.32968474 58.5168927,8.36045397 58.5168927,7.14506935 C58.5168927,5.94506935 57.5564571,4.96045397 56.3521014,4.96045397 L51.9158038,4.96045397 L51.9158038,2.28353089 L51.9158038,2.28353089 Z" id="Shape" fill="#000000"></path>
                    <path d="M28.0355717,35.5076923 C28.0355717,35.8 27.8068966,35.9076923 27.6087114,35.9076923 C27.3952813,35.9076923 27.1970962,35.8 27.1970962,35.5076923 L27.1970962,33.5076923 L24.6206897,33.5076923 L24.6206897,35.5076923 C24.6206897,35.8 24.3920145,35.9076923 24.1938294,35.9076923 C23.9803993,35.9076923 23.7822142,35.8 23.7822142,35.5076923 L23.7822142,31.0153846 C23.7822142,30.7230769 23.9956443,30.6153846 24.1938294,30.6153846 C24.3920145,30.6153846 24.6206897,30.7230769 24.6206897,31.0153846 L24.6206897,32.8 L27.1970962,32.8 L27.1970962,31.0153846 C27.1970962,30.7230769 27.4105263,30.6153846 27.6087114,30.6153846 C27.8068966,30.6153846 28.0355717,30.7230769 28.0355717,31.0153846 L28.0355717,35.5076923 L28.0355717,35.5076923 Z" id="Shape" fill="#58585B"></path>
                    <path d="M31.8010889,35.0923077 C31.8010889,35.1538462 31.8315789,35.2 31.907804,35.2 L34.0573503,35.2 C34.3012704,35.2 34.4232305,35.3846154 34.4232305,35.5538462 C34.4232305,35.7230769 34.3165154,35.9230769 34.0573503,35.9230769 L31.5724138,35.9230769 C31.2675136,35.9230769 30.9473684,35.7538462 30.9473684,35.3230769 L30.9473684,31.3692308 C30.9473684,30.9384615 31.2675136,30.7692308 31.5724138,30.7692308 L33.9811252,30.7692308 C34.2250454,30.7692308 34.3470054,30.9692308 34.3470054,31.1384615 C34.3470054,31.3076923 34.2402904,31.4923077 33.9811252,31.4923077 L31.907804,31.4923077 C31.8315789,31.4923077 31.8010889,31.5230769 31.8010889,31.6 L31.8010889,32.8923077 L33.8439201,32.8923077 C34.0878403,32.8923077 34.2098004,33.0769231 34.2098004,33.2461538 C34.2098004,33.4153846 34.1030853,33.6153846 33.8439201,33.6153846 L31.8010889,33.6153846 L31.8010889,35.0923077 L31.8010889,35.0923077 Z" id="Shape" fill="#58585B"></path>
                    <path d="M40.0181488,34.5481396 L37.5637024,34.5481396 C37.4874773,34.8866011 37.4417423,35.209678 37.3960073,35.5481396 C37.3655172,35.7789088 37.2130672,35.9173703 36.984392,35.9173703 C36.7557169,35.9173703 36.5880218,35.7789088 36.5880218,35.4712165 C36.5880218,34.3942934 37.5027223,31.6866011 38.4936479,30.7481396 C38.691833,30.5635242 38.9662432,30.5789088 39.1491833,30.7481396 C40.1401089,31.6866011 41.0395644,34.3942934 41.0395644,35.4712165 C41.0395644,35.7789088 40.8566243,35.9173703 40.6279492,35.9173703 C40.399274,35.9173703 40.2315789,35.7789088 40.2010889,35.5481396 C40.1553539,35.209678 40.0943739,34.8866011 40.0181488,34.5481396 L40.0181488,34.5481396 Z M38.7833031,31.5789088 C38.3564428,32.1942934 37.9905626,32.9942934 37.7466425,33.8404473 L39.8352087,33.8404473 C39.5912886,32.9789088 39.2254083,32.1942934 38.7985481,31.5789088 L38.7833031,31.5789088 L38.7833031,31.5789088 Z" id="Shape" fill="#58585B"></path>
                    <path d="M44.4544465,35 C44.4544465,35.0615385 44.4849365,35.1076923 44.5611615,35.1076923 L46.6954628,35.1076923 C46.9393829,35.1076923 47.061343,35.2923077 47.061343,35.4615385 C47.061343,35.6307692 46.9393829,35.8307692 46.6954628,35.8307692 L44.2257713,35.8307692 C43.9208711,35.8307692 43.600726,35.6615385 43.600726,35.2307692 L43.600726,31.0153846 C43.600726,30.7230769 43.8141561,30.6153846 44.0123412,30.6153846 C44.2105263,30.6153846 44.4392015,30.7230769 44.4392015,31.0153846 L44.4392015,35 L44.4544465,35 Z" id="Shape" fill="#58585B"></path>
                    <path d="M50.2932849,31.3384615 L50.2932849,35.4461538 C50.2932849,35.7384615 50.0798548,35.8461538 49.8816697,35.8461538 C49.6682396,35.8461538 49.4548094,35.7384615 49.4548094,35.4461538 L49.4548094,31.3384615 L48.2352087,31.3384615 C47.9760436,31.3384615 47.8693285,31.1538462 47.8693285,30.9846154 C47.8693285,30.8153846 47.9760436,30.6153846 48.2352087,30.6153846 L51.6043557,30.6153846 C51.8482759,30.6153846 51.9702359,30.8 51.9702359,30.9846154 C51.9702359,31.1538462 51.8482759,31.3384615 51.6043557,31.3384615 L50.2932849,31.3384615 L50.2932849,31.3384615 Z" id="Shape" fill="#58585B"></path>
                    <path d="M58.3731397,35.5076923 C58.3731397,35.8 58.1444646,35.9076923 57.9462795,35.9076923 C57.7328494,35.9076923 57.5346642,35.8 57.5346642,35.5076923 L57.5346642,33.5076923 L54.9582577,33.5076923 L54.9582577,35.5076923 C54.9582577,35.8 54.7295826,35.9076923 54.5313975,35.9076923 C54.3179673,35.9076923 54.1197822,35.8 54.1197822,35.5076923 L54.1197822,31.0153846 C54.1197822,30.7230769 54.3332123,30.6153846 54.5313975,30.6153846 C54.7295826,30.6153846 54.9582577,30.7230769 54.9582577,31.0153846 L54.9582577,32.8 L57.5346642,32.8 L57.5346642,31.0153846 C57.5346642,30.7230769 57.7480944,30.6153846 57.9462795,30.6153846 C58.1444646,30.6153846 58.3731397,30.7230769 58.3731397,31.0153846 L58.3731397,35.5076923 L58.3731397,35.5076923 Z" id="Shape" fill="#58585B"></path>
                    <path d="M81.1491833,24.2153846 C81.1186933,24.2 81.1034483,24.1538462 81.1034483,24.1230769 C81.1034483,24.0615385 81.1491833,24 81.2254083,24 C81.2558984,24 81.2863884,24.0153846 81.3016334,24.0153846 C81.4235935,24.1076923 81.5455535,24.1692308 81.6980036,24.1692308 C81.8504537,24.1692308 81.9419238,24.0923077 81.9419238,23.9846154 L81.9419238,23.9846154 C81.9419238,23.8769231 81.8809437,23.8307692 81.6217786,23.7692308 C81.3168784,23.6923077 81.1491833,23.6 81.1491833,23.3384615 L81.1491833,23.3384615 C81.1491833,23.0923077 81.3473684,22.9230769 81.6370236,22.9230769 C81.8199637,22.9230769 81.9571688,22.9692308 82.0791289,23.0615385 C82.1096189,23.0769231 82.1401089,23.1076923 82.1401089,23.1538462 C82.1401089,23.2153846 82.0943739,23.2769231 82.0181488,23.2769231 C81.9876588,23.2769231 81.9724138,23.2769231 81.9571688,23.2615385 C81.8504537,23.1846154 81.7437387,23.1538462 81.6370236,23.1538462 C81.4845735,23.1538462 81.4083485,23.2307692 81.4083485,23.3230769 L81.4083485,23.3230769 C81.4083485,23.4307692 81.4693285,23.4769231 81.7437387,23.5538462 C82.0486388,23.6307692 82.2010889,23.7384615 82.2010889,23.9692308 L82.2010889,23.9692308 C82.2010889,24.2307692 81.9876588,24.4 81.6980036,24.4 C81.4845735,24.4 81.3016334,24.3384615 81.1491833,24.2153846 L81.1491833,24.2153846 Z" id="Shape" fill="#000000"></path>
                    <path d="M82.4907441,23.0461538 C82.4907441,22.9692308 82.5517241,22.9230769 82.6127042,22.9230769 L82.6431942,22.9230769 C82.7041742,22.9230769 82.7346642,22.9538462 82.7651543,22.9846154 L83.1920145,23.6615385 L83.6188748,22.9846154 C83.6493648,22.9384615 83.6798548,22.9230769 83.7255898,22.9230769 L83.7560799,22.9230769 C83.8323049,22.9230769 83.8780399,22.9846154 83.8780399,23.0461538 L83.8780399,24.2461538 C83.8780399,24.3230769 83.8170599,24.3692308 83.7560799,24.3692308 C83.6950998,24.3692308 83.6341198,24.3076923 83.6341198,24.2461538 L83.6341198,23.3846154 L83.2834846,23.9076923 C83.2529946,23.9538462 83.2225045,23.9692308 83.1767695,23.9692308 C83.1310345,23.9692308 83.1005445,23.9384615 83.0700544,23.9076923 L82.7194192,23.3846154 L82.7194192,24.2307692 C82.7194192,24.3076923 82.6584392,24.3538462 82.5974592,24.3538462 C82.5212341,24.3538462 82.4754991,24.3076923 82.4754991,24.2307692 L82.4754991,23.0461538 L82.4907441,23.0461538 Z" id="Shape" fill="#000000"></path>
                </g>
                <path d="M27.8251906,0.837209302 L37.2161162,0.837209302 C37.7649365,0.837209302 38.1613067,1.31413238 38.1613067,1.79105546 C38.1613067,2.29874776 37.7649365,2.74490161 37.2161162,2.74490161 L27.8251906,2.74490161 C27.2763702,2.74490161 26.88,2.31413238 26.88,1.79105546 C26.895245,1.31413238 27.2763702,0.837209302 27.8251906,0.837209302 L27.8251906,0.837209302 Z" id="accent" fill="#FF8300" sketch:type="MSShapeGroup"></path>
            </g>
        </g>
    </g>
</svg>