<?xml version="1.0" encoding="UTF-8" standalone="no"?>
<svg width="48px" height="48px" viewBox="0 0 48 48" version="1.1" xmlns="http://www.w3.org/2000/svg" xmlns:xlink="http://www.w3.org/1999/xlink" xmlns:sketch="http://www.bohemiancoding.com/sketch/ns">
    <!-- Generator: Sketch 3.2.2 (9983) - http://www.bohemiancoding.com/sketch -->
    <title>Oval 16</title>
    <desc>Created with Sketch.</desc>
    <defs></defs>
    <g id="Page-1" stroke="none" stroke-width="1" fill="none" fill-rule="evenodd" sketch:type="MSPage">
        <g id="what-we-do" sketch:type="MSArtboardGroup" transform="translate(-164.000000, -3154.000000)" fill="#FFFFFF">
            <g id="section-better-window" sketch:type="MSLayerGroup" transform="translate(0.000000, 3008.000000)">
                <g id="nudges" transform="translate(140.000000, 30.000000)" sketch:type="MSShapeGroup">
                    <g id="Group" transform="translate(0.000000, 92.000000)">
                        <path d="M48,72 C61.254834,72 72,61.254834 72,48 C72,34.745166 61.254834,24 48,24 C34.745166,24 24,34.745166 24,48 C24,61.254834 34.745166,72 48,72 Z M48,60 C49.4235294,60 50.5882353,58.92 50.5882353,57.6 L45.4117647,57.6 C45.4117647,58.92 46.5764706,60 48,60 Z M56.4117647,52.8 L56.4117647,46.2 C56.4117647,42.516 53.6552941,39.432 49.9411765,38.616 L49.9411765,37.8 C49.9411765,36.804 49.0741176,36 48,36 C46.9258824,36 46.0588235,36.804 46.0588235,37.8 L46.0588235,38.616 C42.3447059,39.432 39.5882353,42.516 39.5882353,46.2 L39.5882353,52.8 L37,55.2 L37,56.4 L59,56.4 L59,55.2 L56.4117647,52.8 Z" id="Oval-16"></path>
                    </g>
                </g>
            </g>
        </g>
    </g>
</svg>