<?xml version="1.0" encoding="UTF-8" standalone="no"?>
<svg width="44px" height="44px" viewBox="0 0 44 44" version="1.1" xmlns="http://www.w3.org/2000/svg" xmlns:xlink="http://www.w3.org/1999/xlink" xmlns:sketch="http://www.bohemiancoding.com/sketch/ns">
    <!-- Generator: Sketch 3.2.2 (9983) - http://www.bohemiancoding.com/sketch -->
    <title>question</title>
    <desc>Created with Sketch.</desc>
    <defs></defs>
    <g id="Page-1" stroke="none" stroke-width="1" fill="none" fill-rule="evenodd" sketch:type="MSPage">
        <path d="M22,44 C34.1502645,44 44,34.1502645 44,22 C44,9.8497355 34.1502645,0 22,0 C9.8497355,0 0,9.8497355 0,22 C0,34.1502645 9.8497355,44 22,44 Z M18.0911111,25.7714286 C17.9422222,24.9441683 17.9711111,24.1827789 18.18,23.4853229 C18.3866667,22.7878669 18.6911111,22.1485323 19.0911111,21.567319 C19.4888889,20.9861057 19.9488889,20.4513894 20.4666667,19.9592955 C20.9866667,19.4691389 21.4688889,19.0041683 21.9111111,18.5643836 C22.3577778,18.1245988 22.7333333,17.7061252 23.0466667,17.3050881 C23.3577778,16.9059883 23.5133333,16.4991389 23.5133333,16.0845401 C23.5133333,15.3870841 23.2688889,14.8911155 22.7777778,14.5927593 C22.2911111,14.2963405 21.7044444,14.1471624 21.0222222,14.1471624 C20.2533333,14.1471624 19.6022222,14.3021526 19.0688889,14.6121331 C18.5355556,14.9221135 17.9711111,15.309589 17.38,15.7745597 L13.2,12.4422701 C14.2377778,11.3573386 15.4666667,10.4797065 16.8911111,9.8074364 C18.3133333,9.13516634 19.8666667,8.8 21.5577778,8.8 C22.8311111,8.8 24.0288889,8.92980431 25.1577778,9.18747554 C26.2822222,9.44514677 27.2666667,9.84618395 28.1111111,10.3886497 C28.9577778,10.9311155 29.6155556,11.6343836 30.0888889,12.5003914 C30.5644444,13.3663992 30.8,14.406771 30.8,15.6195695 C30.8,16.3945205 30.6377778,17.0861644 30.3133333,17.6925636 C29.9866667,18.3009002 29.5933333,18.8608023 29.1333333,19.3780822 C28.6755556,19.895362 28.1711111,20.3855186 27.6244444,20.8504892 C27.0755556,21.3154599 26.58,21.7939922 26.1355556,22.2841487 C25.6911111,22.7743053 25.3266667,23.3051468 25.0444444,23.8727984 C24.7644444,24.4423875 24.6688889,25.0739726 24.7577778,25.7714286 L18.0911111,25.7714286 Z M17.1111111,31.4285714 C17.1111111,30.3642308 17.4748444,29.4703297 18.2062222,28.7450549 C18.9356444,28.0197802 19.8743111,27.6571429 21.0222222,27.6571429 C22.1681778,27.6571429 23.1068444,28.0197802 23.8382222,28.7450549 C24.5676444,29.4703297 24.9333333,30.3642308 24.9333333,31.4285714 C24.9333333,32.4929121 24.5676444,33.3868132 23.8382222,34.1120879 C23.1068444,34.8373626 22.1681778,35.2 21.0222222,35.2 C19.8743111,35.2 18.9356444,34.8373626 18.2062222,34.1120879 C17.4748444,33.3868132 17.1111111,32.4929121 17.1111111,31.4285714 Z" id="question" fill="#FFFFFF" sketch:type="MSShapeGroup"></path>
    </g>
</svg>