<?xml version="1.0" encoding="UTF-8" standalone="no"?>
<svg width="28px" height="28px" viewBox="0 0 28 28" version="1.1" xmlns="http://www.w3.org/2000/svg" xmlns:xlink="http://www.w3.org/1999/xlink" xmlns:sketch="http://www.bohemiancoding.com/sketch/ns">
    <!-- Generator: Sketch 3.2.2 (9983) - http://www.bohemiancoding.com/sketch -->
    <title>comment</title>
    <desc>Created with Sketch.</desc>
    <defs></defs>
    <g id="Page-1" stroke="none" stroke-width="1" fill="none" fill-rule="evenodd" sketch:type="MSPage">
        <g id="who-we-are" sketch:type="MSArtboardGroup" transform="translate(-335.000000, -3308.000000)" fill-opacity="0.4" fill="#58585B">
            <g id="Group" sketch:type="MSLayerGroup" transform="translate(140.000000, 3042.000000)">
                <path d="M217.4,288.4 L221.008756,288.4 C222.100102,288.4 223,287.501183 223,286.392436 L223,268.007564 C223,266.89193 222.10849,266 221.008756,266 L196.991244,266 C195.899898,266 195,266.898817 195,268.007564 L195,286.392436 C195,287.50807 195.89151,288.4 196.991244,288.4 L211.8,288.4 L217.4,294 L217.4,288.4 Z M200.6,275.8 L217.4,275.8 L217.4,278.6 L200.6,278.6 L200.6,275.8 Z M200.6,271.6 L217.4,271.6 L217.4,274.4 L200.6,274.4 L200.6,271.6 Z M200.6,280 L211.8,280 L211.8,282.8 L200.6,282.8 L200.6,280 Z" id="comment" sketch:type="MSShapeGroup"></path>
            </g>
        </g>
    </g>
</svg>