<?xml version="1.0" encoding="UTF-8" standalone="no"?>
<svg width="39px" height="48px" viewBox="0 0 39 48" version="1.1" xmlns="http://www.w3.org/2000/svg" xmlns:xlink="http://www.w3.org/1999/xlink" xmlns:sketch="http://www.bohemiancoding.com/sketch/ns">
    <!-- Generator: Sketch 3.2.2 (9983) - http://www.bohemiancoding.com/sketch -->
    <title>retail</title>
    <desc>Created with Sketch.</desc>
    <defs></defs>
    <g id="Page-1" stroke="none" stroke-width="1" fill="none" fill-rule="evenodd" sketch:type="MSPage">
        <path d="M38.8368421,47.158499 L0,47.158499 C0.378947368,35.0894464 0.756842105,23.0456569 1.13684211,10.9387095 C3.60631579,11.174499 6.07263158,11.4102885 8.63894737,11.6553411 C8.63894737,11.4692359 8.63263158,11.3008148 8.64,11.1332359 C8.70526316,9.76649901 8.60947368,8.37955164 8.87157895,7.03723585 C9.69473684,2.80060428 14.8557895,-0.348027303 20.1789474,0.0309200655 C26.0126316,0.446920065 30.1747368,4.08902533 30.1747368,8.77870954 L30.1747368,11.6578674 C32.7105263,11.4153411 35.1789474,11.1787095 37.6926316,10.9378674 C38.0747368,23.0254464 38.4547368,35.0683937 38.8368421,47.158499 L38.8368421,47.158499 Z M26.8852632,9.82713059 L26.8515789,9.82713059 C26.8515789,9.29155164 26.88,8.75428849 26.8473684,8.22039375 C26.6726316,5.32018322 23.6252632,2.82670954 20.0589474,2.65407796 C16.1305263,2.46376217 12.66,4.51934112 12.1126316,7.51134112 C11.8705263,8.84018322 12.0157895,10.2128148 11.9526316,11.5643937 C11.9347368,11.9290253 12.1136842,12.0090253 12.52,12.0401832 C13.6294737,12.1252359 14.7336842,12.2566043 15.8431579,12.3517622 C17.1536842,12.4646043 18.4757895,12.6928148 19.7747368,12.6313411 C22.0168421,12.526078 24.2442105,12.2321832 26.4789474,12.0258674 C26.78,11.998078 26.8957895,11.9012359 26.8905263,11.6578674 C26.8757895,11.0481832 26.8852632,10.4376569 26.8852632,9.82713059 L26.8852632,9.82713059 Z" id="retail" fill="#FFFFFF" sketch:type="MSShapeGroup"></path>
    </g>
</svg>