<?xml version="1.0" encoding="UTF-8" standalone="no"?>
<svg width="43px" height="44px" viewBox="0 0 43 44" version="1.1" xmlns="http://www.w3.org/2000/svg" xmlns:xlink="http://www.w3.org/1999/xlink" xmlns:sketch="http://www.bohemiancoding.com/sketch/ns">
    <!-- Generator: Sketch 3.2.2 (9983) - http://www.bohemiancoding.com/sketch -->
    <title>social</title>
    <desc>Created with Sketch.</desc>
    <defs></defs>
    <g id="Page-1" stroke="none" stroke-width="1" fill="none" fill-rule="evenodd" sketch:type="MSPage">
        <path d="M42.126984,25.6091294 C42.0605137,25.5532134 42.0481693,25.3781323 42.082354,25.2818835 C42.2285886,24.8703054 42.4014113,24.4678939 42.5647383,24.0618157 C43.3519364,22.1120905 43.0727612,20.3163633 41.7158178,18.6838007 C41.283761,18.164974 40.7358559,17.8899775 40.0160777,17.9367269 C37.9877844,18.0696418 35.9585415,18.1695572 33.9311978,18.3024722 C32.4470113,18.4005543 30.9628247,18.6480512 29.4833861,18.6141349 C27.8292256,18.5765521 26.7467095,18.008226 27.6829909,16.2134154 C27.9450738,15.7110885 28.2517867,15.2307612 28.539508,14.7403508 C28.6563058,14.5396034 28.7949438,14.3489391 28.8927501,14.1390251 C29.4985793,12.8300417 30.130047,11.5293083 30.6883974,10.2010751 C31.317966,8.70234418 31.883913,7.19261336 31.6170823,5.50596813 C31.2942266,3.47191064 30.4263146,1.76326568 28.671499,0.549614429 C28.0200902,0.0986201586 27.2661273,-0.117710426 26.445694,0.0647039228 C25.9338728,0.1792858 25.6005718,0.451532342 25.5426477,0.996025424 C25.445791,1.9135971 25.2881615,2.82750216 25.2245399,3.74690714 C25.1324311,5.07697358 24.8750961,6.36487388 24.3395355,7.59410826 C23.8049245,8.82059268 23.112684,9.92791195 22.081445,10.8564835 C20.434881,12.3359647 18.9041653,13.9336944 17.7865149,15.8375869 C17.2063243,16.8266576 16.7809145,17.9000607 16.2387069,18.9120478 C15.209367,20.83794 13.9825154,22.6336672 12.2941702,24.0911487 C12.0368352,24.3138958 11.9513734,24.5265598 11.952323,24.8437224 C11.9599196,30.0292399 11.9580205,35.2147573 11.9580205,40.4002748 L11.9580205,40.7229374 C12.5629001,40.7128542 13.1430907,40.6459383 13.7090377,40.7073542 C14.404127,40.7834366 15.1039641,40.9145183 15.7734149,41.1125158 C17.6640197,41.6707587 19.535633,42.2895008 21.4233892,42.8569103 C23.9483104,43.614984 26.5188113,44.0714782 29.1852194,43.9908125 C31.1384962,43.9312299 33.0946218,43.9614796 35.0488482,43.9853126 C36.2775989,43.9990624 37.2518634,43.5444015 37.9592971,42.5984135 C38.3780599,42.039254 38.7483944,41.4406783 39.0826449,40.830186 C39.7463982,39.6165348 39.9685989,38.3497175 39.4282904,37.0159845 C39.4273408,37.0178178 39.4320887,37.0031513 39.4425341,36.9976514 C39.5450882,36.9408188 39.6485919,36.8839861 39.7530452,36.8280702 C40.8820905,36.2139113 41.6939776,35.3834219 41.8772457,34.0744385 C41.9968922,33.2246993 41.8193216,32.4427926 41.4318948,31.6948021 C41.3226936,31.4839714 41.3388364,31.33364 41.4698778,31.1356425 C42.164967,30.0814892 42.5191587,28.9100041 42.7717458,27.6917696 C42.9445685,26.8594468 42.8002331,26.1765388 42.126984,25.6091294 Z M0.325720446,23.3312417 C0.290586152,23.4119073 0.274443369,23.4348237 0.272544218,23.4595734 C0.235510773,23.7904858 0.195628601,24.1223149 0.16619176,24.4541441 C-0.11298344,27.5194385 -0.0455635785,30.5783163 0.40738394,33.6252775 C0.823298014,36.4256586 1.51363941,39.1572906 2.63034021,41.7816739 C2.75283545,42.0695036 2.90381796,42.1822522 3.24091727,42.1795022 C5.5274951,42.1630024 7.81407293,42.1712523 10.1006508,42.1703356 C10.2402384,42.1703356 10.3807755,42.1575025 10.5175144,42.1510859 L10.5175144,23.3459081 C7.1056896,22.9700796 3.71570502,23.0516619 0.325720446,23.3312417 Z" id="social" fill="#FFFFFF" sketch:type="MSShapeGroup"></path>
    </g>
</svg>