<?xml version="1.0" encoding="UTF-8" standalone="no"?>
<svg width="124px" height="130px" viewBox="0 0 124 130" version="1.1" xmlns="http://www.w3.org/2000/svg" xmlns:xlink="http://www.w3.org/1999/xlink" xmlns:sketch="http://www.bohemiancoding.com/sketch/ns">
    <!-- Generator: Sketch 3.2.2 (9983) - http://www.bohemiancoding.com/sketch -->
    <title>Imported Layers</title>
    <desc>Created with Sketch.</desc>
    <defs></defs>
    <g id="Page-1" stroke="none" stroke-width="1" fill="none" fill-rule="evenodd" sketch:type="MSPage">
        <g id="Join-our-team" sketch:type="MSArtboardGroup" transform="translate(-212.000000, -1472.000000)" fill="#FFFFFF">
            <path d="M322.36378,1530.32191 C317.137634,1513.24983 310.946707,1499.68098 303.95961,1489.9926 C295.349927,1478.05364 285.502512,1472 274.688805,1472 C263.715561,1472 253.587634,1478.8141 244.58478,1492.2552 C237.460073,1502.89116 231.005268,1517.70289 225.400317,1536.28012 C215.874244,1567.85058 212.042341,1599.83358 212.005293,1600.15295 L212,1601.2478 L225.286146,1601.2478 L225.362512,1600.58202 C227.67239,1580.66497 240.864024,1481.1496 273.818537,1478.02884 L273.818537,1478.02358 C274.315293,1477.98 274.813561,1477.9522 275.314854,1477.9522 C308.180146,1477.9522 321.497293,1566.44838 323.854805,1600.54746 L323.903951,1601.2478 L334.739585,1601.2478 L334.739585,1600.4896 L335.299854,1600.47156 C335.020098,1592.11249 331.433927,1559.95965 322.36378,1530.32191 L322.36378,1530.32191 Z M217.279073,1599.74491 C218.692976,1586.97335 222.753976,1556.30763 231.464976,1529.17971 C240.402805,1501.34092 251.580951,1484.75879 264.780146,1479.69705 C254.060951,1486.49237 244.701976,1503.92665 236.871829,1531.74665 C229.267756,1558.76711 225.339829,1587.82549 223.93878,1599.74491 L217.279073,1599.74491 L217.279073,1599.74491 Z M216.436024,1600.49636 L216.436024,1600.49636 L216.43678,1600.49636 L216.436024,1600.49636 L216.436024,1600.49636 Z" id="Imported-Layers" sketch:type="MSShapeGroup"></path>
        </g>
    </g>
</svg>