<?xml version="1.0" encoding="UTF-8" standalone="no"?>
<svg width="41px" height="54px" viewBox="0 0 41 54" version="1.1" xmlns="http://www.w3.org/2000/svg" xmlns:xlink="http://www.w3.org/1999/xlink" xmlns:sketch="http://www.bohemiancoding.com/sketch/ns">
    <!-- Generator: Sketch 3.2.2 (9983) - http://www.bohemiancoding.com/sketch -->
    <title>tracking</title>
    <desc>Created with Sketch.</desc>
    <defs></defs>
    <g id="Page-1" stroke="none" stroke-width="1" fill="none" fill-rule="evenodd" sketch:type="MSPage">
        <path d="M27.4659897,22.7107611 C27.7493667,24.2578715 27.5672935,25.7752818 27.1114263,27.275142 L27.1305919,27.2535418 C27.1620782,27.276492 27.921857,27.8313458 31.6837888,29.1246545 C33.6975448,29.8145092 35.6414833,29.7159585 37.2199067,29.4135565 C38.1138446,26.7283883 39.0447448,24.0567202 39.9482655,21.375602 C40.5081745,19.7177908 40.9448762,18.0289293 40.9886833,16.2725674 C41.0585008,13.4442983 40.8093481,10.6443793 40.1276007,7.89036064 C39.6210815,5.85049681 39.035162,3.8416832 37.7346397,2.12042154 C35.8180806,-0.416245649 32.4257709,-0.73079778 30.1217931,1.46836712 C29.4893286,2.07182121 28.9390023,2.79542611 28.485873,3.54198117 C27.2045163,5.6560955 26.376289,7.96461114 25.7698349,10.3419772 C25.5275271,11.2869837 25.4070576,12.2819404 25.389261,13.257997 C25.3495608,15.2722107 25.9669667,17.1757236 26.5487793,19.0832865 C26.9115565,20.2766946 27.2401095,21.4863028 27.4659897,22.7107611 Z M34.907715,32.3444263 C33.6140376,32.3444263 32.2149494,32.1662251 30.7843749,31.6734718 C28.1422613,30.7662656 26.7719215,30.1614615 26.0340462,29.7537588 C25.9628598,29.9576102 25.8875664,30.1614615 25.8218558,30.3666629 C25.0538632,32.7575291 24.3967572,35.1713455 24.5870441,37.7161127 C24.7061446,39.3077735 25.2304604,40.7360832 26.656928,41.6419393 C28.1463682,42.5869457 29.797347,42.8690976 31.533202,42.4897451 C33.2047153,42.1252426 34.3012609,41.0263352 35.1185365,39.6155756 C36.0631263,37.9861146 36.5189936,36.1973524 36.8078465,34.36404 C36.921471,33.6417851 37.0063472,32.9114302 37.0925924,32.1743252 C36.4108449,32.2755759 35.6811835,32.3444263 34.907715,32.3444263 Z M14.2280421,38.3344169 C13.668133,36.5645549 13.5435567,34.7568927 13.9515099,32.9208802 C14.2567904,31.5479209 14.6455781,30.1925118 14.9960347,28.8290025 C15.6011198,26.4772866 15.9433625,24.0945204 15.1315628,21.7455045 C14.4484464,19.7704411 13.6366467,17.830478 12.7646123,15.9269651 C12.1526823,14.591806 11.2505306,13.4186481 10.0430983,12.5087419 C8.08547006,11.0318319 5.33520772,11.2005831 3.58429406,12.9110447 C2.74237702,13.7332002 2.17014722,14.7241069 1.75124216,15.8000642 C0.682075963,18.5567829 0.207043095,21.4323024 0.0468735107,24.3645223 C-0.105082248,27.1819914 0.0783598392,29.9603102 1.10508794,32.6346783 C2.1523506,35.3630468 3.19550636,38.1035654 4.25508976,40.8832342 C5.65691586,41.1653861 9.63925192,41.5501387 14.2280421,38.3344169 Z M15.3779775,40.8400339 C11.8227604,43.1998499 8.53312351,43.7587537 6.21682492,43.7587537 C5.54466025,43.7587537 4.96147869,43.7101533 4.47001817,43.6467029 C4.67262585,45.9849188 5.47621171,49.3329414 6.71376132,51.2216042 C7.80483105,52.8834655 9.24088142,54.0107231 11.3367757,53.9999231 C14.9166344,53.9823729 17.3000125,52.1288104 17.1494257,48.1543835 C17.0522288,45.5988161 16.2609637,43.2093 15.3779775,40.8400339 Z" id="tracking" fill="#FFFFFF" sketch:type="MSShapeGroup"></path>
    </g>
</svg>